<?xml version="1.0" encoding="iso-8859-1"?>
<!-- Generator: Adobe Illustrator 19.0.0, SVG Export Plug-In . SVG Version: 6.00 Build 0)  -->
<svg version="1.1" id="Capa_1" xmlns="http://www.w3.org/2000/svg" xmlns:xlink="http://www.w3.org/1999/xlink" x="0px" y="0px"
	 viewBox="0 0 463 463" style="fill: url(#my-cool-gradient) #447799; enable-background:new 0 0 463 463;" xml:space="preserve">
<linearGradient id="my-cool-gradient" x2="1" y2="1">
    <stop offset="0%" stop-color="#F53844" />
    <!-- <stop offset="50%" stop-color="#3772B3" /> -->
    <stop offset="100%" stop-color="#42378F" />
</linearGradient>
<g>
	<path d="M455.5,427.718H439v-40.5c0-4.142-3.357-7.5-7.5-7.5H423v-90.234c9.29-3.138,16-11.93,16-22.266s-6.71-19.128-16-22.266
		v-81.705l10.035-4.157c3.06-1.268,4.926-4.392,4.592-7.687l-8.441-83.094c-0.116-1.141-0.492-2.24-1.099-3.212l-25.76-41.285
		c-1.941-3.11-5.845-4.363-9.233-2.959l-44.347,18.369c-3.387,1.403-5.264,5.049-4.437,8.621l5.885,25.416l-102.841,42.598
		c-4.688-2.717-10.114-4.227-15.854-4.227c-13.227,0-24.793,7.995-29.467,20.368l-1.179,3.12l-164.52,68.146
		c-1.838,0.761-3.298,2.221-4.059,4.059c-0.762,1.838-0.762,3.903,0,5.74l8.151,19.678c-0.272,0.776-0.427,1.607-0.427,2.477v136.5
		H15.5c-4.143,0-7.5,3.358-7.5,7.5v48.5H7.5c-4.143,0-7.5,3.358-7.5,7.5s3.357,7.5,7.5,7.5h448c4.143,0,7.5-3.358,7.5-7.5
		S459.643,427.718,455.5,427.718z M399.5,379.718c-4.143,0-7.5,3.358-7.5,7.5v40.5h-19.316L270.47,157.155l100.396-41.585L408,161.1
		v83.853c-9.29,3.138-16,11.93-16,22.266s6.71,19.128,16,22.266v90.234H399.5z M374.124,79.584c2.098-0.869,4.408-0.869,6.506,0
		c2.097,0.869,3.73,2.502,4.599,4.599l0.002,0.005c0.867,2.097,0.867,4.406-0.001,6.502c-0.869,2.098-2.503,3.731-4.601,4.6
		l-115.463,47.826l-4.2-11.117c-0.614-1.625-1.353-3.169-2.193-4.635L374.124,79.584z M393.611,104.418l12.883,31.103
		l-21.159-25.944l1.035-0.428C389.102,108.016,391.536,106.401,393.611,104.418z M415.5,275.718c-4.687,0-8.5-3.813-8.5-8.5
		s3.813-8.5,8.5-8.5s8.5,3.813,8.5,8.5S420.187,275.718,415.5,275.718z M414.438,71.56l5.915,58.224L399.09,78.45
		c-0.001-0.002-0.001-0.004-0.002-0.006s-0.002-0.004-0.003-0.006l-15.496-37.411l9.375-3.883L414.438,71.56z M360.357,50.649
		l9.374-3.883l7.118,17.183c-2.87,0.065-5.733,0.644-8.465,1.776l-4.139,1.714L360.357,50.649z M231.5,126.63
		c5.514,0,12.464,2.803,15.436,10.669L356.65,427.718h-18.457l-99.824-227.513c-1.196-2.726-3.892-4.487-6.868-4.487
		s-5.672,1.761-6.868,4.487l-99.824,227.513H106.35l109.714-290.419C219.036,129.433,225.986,126.63,231.5,126.63z M260.743,346.718
		L231.5,364.509l-29.243-17.791H260.743z M194.61,331.718l36.89-40.761l36.89,40.761H194.61z M286.974,348.318l29.892,68.128
		l-70.936-43.157L286.974,348.318z M241.615,279.781l10.296-11.376l19.377,44.162L241.615,279.781z M231.5,268.604l-13.806-15.254
		l13.806-31.465l13.806,31.465L231.5,268.604z M211.089,268.405l10.296,11.376l-29.673,32.786L211.089,268.405z M176.026,348.318
		l41.044,24.971l-70.936,43.157L176.026,348.318z M231.5,382.067l75.036,45.651H156.464L231.5,382.067z M193.583,154.366
		l-8.241,21.813L55.51,229.958l-6.506-15.706L193.583,154.366z M55,246.405l123.071-50.978L90.316,427.718H87v-48.5
		c0-4.142-3.357-7.5-7.5-7.5H55V246.405z M23,386.718h49v41H23V386.718z M407,427.718v-33h17v33H407z"/>
	<path d="M231.5,157.385c5.606,0,10.167-4.561,10.167-10.167s-4.561-10.167-10.167-10.167s-10.167,4.561-10.167,10.167
		S225.894,157.385,231.5,157.385z"/>
</g>
<g>
</g>
<g>
</g>
<g>
</g>
<g>
</g>
<g>
</g>
<g>
</g>
<g>
</g>
<g>
</g>
<g>
</g>
<g>
</g>
<g>
</g>
<g>
</g>
<g>
</g>
<g>
</g>
<g>
</g>
</svg>
