<svg xmlns="http://www.w3.org/2000/svg" xmlns:xlink="http://www.w3.org/1999/xlink" viewBox="0 0 226.77 82.82"><defs><style>.cls-1{fill:#94589f;}.cls-2{fill:url(#Sfumatura_senza_nome_25);}.cls-3{fill:url(#Sfumatura_senza_nome_25-2);}.cls-4{fill:url(#Sfumatura_senza_nome_25-3);}.cls-5{fill:url(#Sfumatura_senza_nome_25-4);}.cls-6{fill:#dc3aff;}.cls-7{fill:url(#Sfumatura_senza_nome_265);}.cls-8{fill:url(#Sfumatura_senza_nome_265-2);}.cls-9{fill:url(#Sfumatura_senza_nome_265-3);}.cls-10{fill:url(#Sfumatura_senza_nome_265-4);}.cls-11{fill:url(#Sfumatura_senza_nome_265-5);}.cls-12{fill:url(#Sfumatura_senza_nome_265-6);}.cls-13{fill:url(#Sfumatura_senza_nome_265-7);}.cls-14{fill:#2eccff;}</style><linearGradient id="Sfumatura_senza_nome_25" x1="145.24" y1="55.61" x2="145.24" y2="13.74" gradientUnits="userSpaceOnUse"><stop offset="0" stop-color="#9459a0"/><stop offset="1" stop-color="#4bc2f1"/></linearGradient><linearGradient id="Sfumatura_senza_nome_25-2" x1="159.66" y1="55.61" x2="159.66" y2="13.74" xlink:href="#Sfumatura_senza_nome_25"/><linearGradient id="Sfumatura_senza_nome_25-3" x1="181.13" y1="56.18" x2="181.13" y2="25.4" xlink:href="#Sfumatura_senza_nome_25"/><linearGradient id="Sfumatura_senza_nome_25-4" x1="212.33" y1="56.18" x2="212.33" y2="25.4" xlink:href="#Sfumatura_senza_nome_25"/><linearGradient id="Sfumatura_senza_nome_265" x1="145.24" y1="55.61" x2="145.24" y2="13.74" gradientUnits="userSpaceOnUse"><stop offset="0" stop-color="#dc3aff"/><stop offset="1" stop-color="#2eccff"/></linearGradient><linearGradient id="Sfumatura_senza_nome_265-2" x1="159.66" y1="55.61" x2="159.66" y2="13.74" xlink:href="#Sfumatura_senza_nome_265"/><linearGradient id="Sfumatura_senza_nome_265-3" x1="100.22" y1="56.28" x2="100.22" y2="20.17" xlink:href="#Sfumatura_senza_nome_265"/><linearGradient id="Sfumatura_senza_nome_265-4" x1="123.21" y1="56.18" x2="123.21" y2="25.4" xlink:href="#Sfumatura_senza_nome_265"/><linearGradient id="Sfumatura_senza_nome_265-5" x1="181.13" y1="56.18" x2="181.13" y2="25.4" xlink:href="#Sfumatura_senza_nome_265"/><linearGradient id="Sfumatura_senza_nome_265-6" x1="212.33" y1="56.18" x2="212.33" y2="25.4" xlink:href="#Sfumatura_senza_nome_265"/><linearGradient id="Sfumatura_senza_nome_265-7" x1="43.6" y1="82.82" x2="43.6" y2="0" xlink:href="#Sfumatura_senza_nome_265"/></defs><title>Ресурс 1</title><g id="Слой_2" data-name="Слой 2"><g id="Logo_Telleee" data-name="Logo Telleee"><g id="Logo_Tellee_Color" data-name="Logo Tellee_Color"><circle class="cls-1" cx="13.7" cy="41.46" r="4.25"/><rect class="cls-2" x="140.99" y="13.74" width="8.5" height="41.87" rx="0.4" ry="0.4"/><rect class="cls-3" x="155.41" y="13.74" width="8.5" height="41.87" rx="0.4" ry="0.4"/><path class="cls-4" d="M181.8,25.4c-9.14,0-15.11,5.87-15.11,14.74,0,6.29,2.87,11.34,7.54,14,9.34,4.82,17.79.09,20.54-5.2a.23.23,0,0,0-.31-.32c-7.2,3.43-13.2,2.16-15.67-.46a3.83,3.83,0,0,1-.29-.28,8.7,8.7,0,0,1-2.37-5.55.41.41,0,0,1,.4-.42H195a.55.55,0,0,0,.55-.5C196,35,193.34,25.4,181.8,25.4Zm5.12,12.23H176.64a.4.4,0,0,1-.4-.39A7.39,7.39,0,0,1,178,32a5.47,5.47,0,0,1,4.06-1.55,5.24,5.24,0,0,1,3.44,1.35c1.47,1.32,1.81,3.35,1.78,5.46A.39.39,0,0,1,186.92,37.63Z"/><path class="cls-5" d="M213,25.4c-9.14,0-15.12,5.87-15.12,14.74,0,6.29,2.88,11.34,7.55,14,9.34,4.82,17.79.09,20.54-5.2a.23.23,0,0,0-.31-.32c-7.2,3.43-13.21,2.16-15.68-.46l-.28-.28a8.65,8.65,0,0,1-2.37-5.55.41.41,0,0,1,.4-.42h18.43a.56.56,0,0,0,.56-.5C227.19,35,224.53,25.4,213,25.4Zm5.12,12.23H207.83a.41.41,0,0,1-.4-.39A7.44,7.44,0,0,1,209.24,32a5.47,5.47,0,0,1,4.06-1.55,5.19,5.19,0,0,1,3.43,1.35c1.48,1.32,1.82,3.35,1.79,5.46A.39.39,0,0,1,218.12,37.63Z"/><circle class="cls-6" cx="13.7" cy="41.46" r="4.25"/><rect class="cls-7" x="140.99" y="13.74" width="8.5" height="41.87" rx="0.4" ry="0.4"/><rect class="cls-8" x="155.41" y="13.74" width="8.5" height="41.87" rx="0.4" ry="0.4"/><path class="cls-9" d="M108.84,50.85a.24.24,0,0,1,.3.33c-2.17,3.82-8.9,7.37-14.67,3.27l-.11-.07c-2.12-1.6-3.09-4.15-3.09-7.83V22.37a.4.4,0,0,1,.31-.39l7.71-1.81a.4.4,0,0,1,.48.39l0,6.78H107a.43.43,0,0,1,.42.4v3.44a.4.4,0,0,1-.39.4h-7.3V44.35a9.67,9.67,0,0,0,.88,4.68h0C102,51.05,105.37,52.19,108.84,50.85Z"/><path class="cls-10" d="M123.88,25.4c-9.14,0-15.12,5.87-15.12,14.74,0,6.29,2.88,11.34,7.55,14,9.34,4.82,17.79.09,20.54-5.2a.23.23,0,0,0-.31-.32c-7.2,3.43-13.21,2.16-15.68-.46l-.28-.28a8.65,8.65,0,0,1-2.37-5.55.41.41,0,0,1,.4-.42H137a.56.56,0,0,0,.56-.5C138.07,35,135.41,25.4,123.88,25.4ZM129,37.63H118.71a.41.41,0,0,1-.4-.39A7.44,7.44,0,0,1,120.12,32a5.47,5.47,0,0,1,4.06-1.55,5.19,5.19,0,0,1,3.43,1.35c1.48,1.32,1.82,3.35,1.79,5.46A.39.39,0,0,1,129,37.63Z"/><path class="cls-11" d="M181.8,25.4c-9.14,0-15.11,5.87-15.11,14.74,0,6.29,2.87,11.34,7.54,14,9.34,4.82,17.79.09,20.54-5.2a.23.23,0,0,0-.31-.32c-7.2,3.43-13.2,2.16-15.67-.46a3.83,3.83,0,0,1-.29-.28,8.7,8.7,0,0,1-2.37-5.55.41.41,0,0,1,.4-.42H195a.55.55,0,0,0,.55-.5C196,35,193.34,25.4,181.8,25.4Zm5.12,12.23H176.64a.4.4,0,0,1-.4-.39A7.39,7.39,0,0,1,178,32a5.47,5.47,0,0,1,4.06-1.55,5.24,5.24,0,0,1,3.44,1.35c1.47,1.32,1.81,3.35,1.78,5.46A.39.39,0,0,1,186.92,37.63Z"/><path class="cls-12" d="M213,25.4c-9.14,0-15.12,5.87-15.12,14.74,0,6.29,2.88,11.34,7.55,14,9.34,4.82,17.79.09,20.54-5.2a.23.23,0,0,0-.31-.32c-7.2,3.43-13.21,2.16-15.68-.46l-.28-.28a8.65,8.65,0,0,1-2.37-5.55.41.41,0,0,1,.4-.42h18.43a.56.56,0,0,0,.56-.5C227.19,35,224.53,25.4,213,25.4Zm5.12,12.23H207.83a.41.41,0,0,1-.4-.39A7.44,7.44,0,0,1,209.24,32a5.47,5.47,0,0,1,4.06-1.55,5.19,5.19,0,0,1,3.43,1.35c1.48,1.32,1.82,3.35,1.79,5.46A.39.39,0,0,1,218.12,37.63Z"/><path class="cls-13" d="M86.83,65.22c-5.51,1.07-13.09-.1-17.65-4.6l9.69-9.68a13.5,13.5,0,0,0,0-19.06L50.94,4A13.48,13.48,0,0,0,31.87,4L3.94,31.88a13.5,13.5,0,0,0,0,19.06L31.87,78.87a13.48,13.48,0,0,0,19.07,0l9.59-9.59c7,4,16.78,4.24,26.55-3.5A.31.31,0,0,0,86.83,65.22ZM48,75.78a9.36,9.36,0,0,1-13.25,0L7,48A9.38,9.38,0,0,1,7,34.78L34.78,7A9.36,9.36,0,0,1,48,7L75.78,34.78a9.38,9.38,0,0,1,0,13.26Z"/><path class="cls-14" d="M45.66,13.74v28a4.26,4.26,0,1,0-8.5,0v-28a4.26,4.26,0,1,1,8.5,0Z"/><path class="cls-14" d="M27.55,45.1a4.49,4.49,0,0,1-4.25-4.7V55.28A4.49,4.49,0,0,0,27.55,60a4.49,4.49,0,0,0,4.25-4.7V40.4A4.49,4.49,0,0,1,27.55,45.1Z"/><path class="cls-14" d="M27.55,22.94a4.41,4.41,0,0,0-4.25,4.54V41.84a4.4,4.4,0,0,1,4.25-4.53,4.4,4.4,0,0,1,4.25,4.53V27.48A4.41,4.41,0,0,0,27.55,22.94Z"/><path class="cls-14" d="M55.26,22.94A4.41,4.41,0,0,0,51,27.48V41.84a4.26,4.26,0,1,1,8.5,0V27.48A4.41,4.41,0,0,0,55.26,22.94Z"/><path class="cls-14" d="M55.26,45.66A4.4,4.4,0,0,1,51,41.13V55.46A4.39,4.39,0,0,0,55.26,60h0a4.39,4.39,0,0,0,4.25-4.52V41.13A4.4,4.4,0,0,1,55.26,45.66Z"/><path class="cls-6" d="M37.16,41.63V69.49a4.34,4.34,0,0,0,4.25,4.42,4.16,4.16,0,0,0,3-1.3,4.47,4.47,0,0,0,1.25-3.12V41.63a4.51,4.51,0,0,1-1.25,3.13,4.15,4.15,0,0,1-3,1.29Z"/><path class="cls-6" d="M37.78,39.78c.39-.4,3,1.56,3.63,1.56a5.71,5.71,0,0,0,2.32-.48A2.59,2.59,0,0,0,45,39.78c.39.4.63,7.91.63,8.52s-.16,7.91-.41,8.27a3.08,3.08,0,0,1-.84,1.82,4.15,4.15,0,0,1-3,1.29,3.25,3.25,0,0,1-3.18-2.5c-.64-.38-1.07-8.06-1.07-8.88C37.16,47.69,37.4,40.18,37.78,39.78Z"/><path class="cls-6" d="M45.66,41.63a4.51,4.51,0,0,1-1.25,3.13,4.15,4.15,0,0,1-3,1.29,4.34,4.34,0,0,1-4.25-4.42,4.5,4.5,0,0,1,1.25-3.12,4.13,4.13,0,0,1,6,0A4.5,4.5,0,0,1,45.66,41.63Z"/><ellipse class="cls-6" cx="41.41" cy="41.55" rx="4.25" ry="4.33"/><circle class="cls-6" cx="41.41" cy="41.46" r="4.25"/><circle class="cls-6" cx="55.26" cy="41.46" r="4.25"/><circle class="cls-6" cx="69.11" cy="41.46" r="4.25"/><circle class="cls-6" cx="27.55" cy="41.46" r="4.25"/></g></g></g></svg>