<svg width="227" height="83" viewBox="0 0 227 83" fill="none" xmlns="http://www.w3.org/2000/svg">
<path d="M141.388 55.6114H149.088C149.141 55.6114 149.193 55.601 149.241 55.5809C149.29 55.5608 149.334 55.5314 149.371 55.4942C149.408 55.4571 149.438 55.413 149.458 55.3645C149.478 55.3159 149.488 55.2639 149.488 55.2114V14.1414C149.488 14.0889 149.478 14.0369 149.458 13.9883C149.438 13.9398 149.408 13.8957 149.371 13.8586C149.334 13.8214 149.29 13.7919 149.241 13.7718C149.193 13.7517 149.141 13.7414 149.088 13.7414H141.388C141.336 13.7414 141.284 13.7517 141.235 13.7718C141.187 13.7919 141.142 13.8214 141.105 13.8586C141.068 13.8957 141.039 13.9398 141.019 13.9883C140.999 14.0369 140.988 14.0889 140.988 14.1414V55.2114C140.988 55.2639 140.999 55.3159 141.019 55.3645C141.039 55.413 141.068 55.4571 141.105 55.4942C141.142 55.5314 141.187 55.5608 141.235 55.5809C141.284 55.601 141.336 55.6114 141.388 55.6114V55.6114ZM155.808 55.6114H163.518C163.57 55.6114 163.622 55.601 163.67 55.5808C163.718 55.5606 163.761 55.5309 163.798 55.4937C163.834 55.4564 163.862 55.4122 163.881 55.3637C163.9 55.3152 163.91 55.2634 163.908 55.2114V14.1414C163.91 14.0893 163.9 14.0376 163.881 13.9891C163.862 13.9406 163.834 13.8964 163.798 13.8591C163.761 13.8219 163.718 13.7922 163.67 13.772C163.622 13.7518 163.57 13.7414 163.518 13.7414H155.808C155.756 13.7414 155.704 13.7517 155.655 13.7718C155.607 13.7919 155.563 13.8214 155.525 13.8586C155.488 13.8957 155.459 13.9398 155.439 13.9883C155.418 14.0369 155.408 14.0889 155.408 14.1414V55.2114C155.408 55.3175 155.45 55.4192 155.525 55.4942C155.6 55.5693 155.702 55.6114 155.808 55.6114V55.6114ZM108.808 50.8514C108.853 50.8273 108.905 50.8189 108.956 50.8277C109.006 50.8364 109.052 50.8617 109.087 50.8996C109.121 50.9375 109.142 50.9858 109.146 51.0368C109.15 51.0878 109.136 51.1387 109.108 51.1814C106.938 55.0014 100.208 58.5414 94.4382 54.4514L94.3281 54.3814C92.2081 52.7814 91.2382 50.2314 91.2382 46.5514V22.3714C91.2381 22.2809 91.2688 22.1931 91.3251 22.1222C91.3814 22.0514 91.4601 22.0018 91.5482 21.9814L99.2582 20.1714C99.3161 20.1596 99.376 20.1607 99.4335 20.1748C99.4909 20.1889 99.5445 20.2156 99.5905 20.2529C99.6364 20.2902 99.6734 20.3372 99.699 20.3905C99.7245 20.4439 99.7379 20.5022 99.7382 20.5614V27.3414H107.038C107.146 27.3413 107.25 27.3828 107.328 27.4573C107.407 27.5317 107.453 27.6335 107.458 27.7414V31.1814C107.46 31.233 107.45 31.2843 107.431 31.3323C107.412 31.3802 107.384 31.4237 107.347 31.4602C107.311 31.4967 107.267 31.5254 107.219 31.5445C107.171 31.5636 107.12 31.5728 107.068 31.5714H99.7682V44.3514C99.6668 45.9604 99.9693 47.5691 100.648 49.0314V49.0314C102.008 51.0514 105.368 52.1914 108.838 50.8914L108.808 50.8514ZM123.808 25.4014C114.668 25.4014 108.698 31.2714 108.698 40.1414C108.698 46.4314 111.568 51.4814 116.238 54.1414C125.578 58.9614 134.028 54.2314 136.778 48.9414C136.805 48.8979 136.816 48.8467 136.811 48.796C136.805 48.7453 136.783 48.6978 136.747 48.6612C136.712 48.6245 136.665 48.6007 136.615 48.5935C136.564 48.5863 136.512 48.5961 136.468 48.6214C129.268 52.0514 123.268 50.7814 120.798 48.1614C120.697 48.0732 120.6 47.9798 120.508 47.8814C119.08 46.3749 118.243 44.4048 118.148 42.3314C118.144 42.2769 118.151 42.222 118.17 42.1705C118.188 42.119 118.217 42.0719 118.255 42.0323C118.292 41.9927 118.338 41.9614 118.389 41.9406C118.439 41.9198 118.494 41.9098 118.548 41.9114H137.008C137.146 41.912 137.279 41.8609 137.38 41.7684C137.482 41.6758 137.546 41.5484 137.558 41.4114C138.078 35.0014 135.418 25.4014 123.878 25.4014H123.808ZM118.648 37.6314C118.544 37.6314 118.444 37.5907 118.369 37.5178C118.294 37.4449 118.251 37.3457 118.248 37.2414C118.143 35.3192 118.793 33.4321 120.058 31.9814C120.591 31.4587 121.225 31.0512 121.922 30.7845C122.619 30.5179 123.363 30.3977 124.108 30.4314C125.381 30.4487 126.604 30.9286 127.548 31.7814C129.018 33.1014 129.358 35.1314 129.328 37.2414C129.328 37.2935 129.318 37.345 129.298 37.393C129.277 37.441 129.248 37.4844 129.21 37.5208C129.173 37.5571 129.129 37.5856 129.08 37.6046C129.032 37.6236 128.98 37.6327 128.928 37.6314H118.648ZM181.738 25.4014C172.588 25.4014 166.618 31.2714 166.618 40.1414C166.618 46.4314 169.488 51.4814 174.158 54.1414C183.508 58.9614 191.948 54.2314 194.708 48.9414C194.73 48.8966 194.737 48.8463 194.728 48.7974C194.72 48.7485 194.696 48.7034 194.661 48.6683C194.626 48.6332 194.581 48.6098 194.532 48.6014C194.483 48.593 194.433 48.6 194.388 48.6214C187.188 52.0514 181.188 50.7814 178.718 48.1614C178.617 48.0732 178.52 47.9798 178.428 47.8814C177 46.3749 176.163 44.4048 176.068 42.3314C176.064 42.2769 176.071 42.222 176.09 42.1705C176.108 42.119 176.137 42.0719 176.175 42.0323C176.212 41.9927 176.258 41.9614 176.308 41.9406C176.359 41.9198 176.413 41.9098 176.468 41.9114H195.008C195.146 41.912 195.279 41.8609 195.38 41.7684C195.482 41.6758 195.546 41.5484 195.558 41.4114C196.008 35.0014 193.338 25.4014 181.808 25.4014H181.738ZM176.568 37.6314C176.464 37.6314 176.364 37.5907 176.289 37.5178C176.214 37.4449 176.171 37.3457 176.168 37.2414C176.063 35.3192 176.713 33.4321 177.978 31.9814C178.505 31.4649 179.131 31.0611 179.819 30.7946C180.506 30.5282 181.241 30.4046 181.978 30.4314C183.251 30.4487 184.474 30.9286 185.418 31.7814C186.898 33.1014 187.228 35.1314 187.198 37.2414C187.198 37.3448 187.157 37.444 187.084 37.5172C187.011 37.5903 186.912 37.6314 186.808 37.6314H176.568ZM213.008 25.4014C203.868 25.4014 197.898 31.2714 197.898 40.1414C197.898 46.4314 200.768 51.4814 205.438 54.1414C214.778 58.9614 223.228 54.2314 225.978 48.9414C226.005 48.8979 226.016 48.8467 226.011 48.796C226.005 48.7453 225.983 48.6978 225.947 48.6612C225.912 48.6245 225.865 48.6007 225.815 48.5935C225.764 48.5863 225.713 48.5961 225.668 48.6214C218.468 52.0514 212.468 50.7814 209.998 48.1614C209.897 48.0732 209.8 47.9798 209.708 47.8814C208.28 46.3749 207.443 44.4048 207.348 42.3314C207.344 42.2769 207.351 42.222 207.37 42.1705C207.388 42.119 207.417 42.0719 207.455 42.0323C207.492 41.9927 207.538 41.9614 207.589 41.9406C207.639 41.9198 207.693 41.9098 207.748 41.9114H226.178C226.316 41.912 226.449 41.8609 226.55 41.7684C226.652 41.6758 226.716 41.5484 226.728 41.4114C227.198 35.0014 224.538 25.4014 213.008 25.4014ZM207.848 37.6314C207.744 37.6314 207.644 37.5907 207.569 37.5178C207.494 37.4449 207.451 37.3457 207.448 37.2414C207.343 35.3192 207.993 33.4321 209.258 31.9814C209.785 31.4649 210.411 31.0611 211.099 30.7946C211.786 30.5282 212.521 30.4046 213.258 30.4314C214.531 30.4487 215.753 30.9286 216.698 31.7814C218.168 33.1014 218.508 35.1314 218.478 37.2414C218.478 37.2935 218.468 37.345 218.448 37.393C218.427 37.441 218.398 37.4844 218.36 37.5208C218.323 37.5571 218.279 37.5856 218.23 37.6046C218.182 37.6236 218.13 37.6327 218.078 37.6314H207.848Z" fill="white"/>
<path d="M108.488 69.1014V62.1014H111.488C112.818 62.1014 113.698 62.6714 113.698 63.6914C113.681 64.0657 113.544 64.4247 113.309 64.7161C113.073 65.0074 112.751 65.216 112.388 65.3114V65.3114C112.831 65.3244 113.254 65.4996 113.577 65.8037C113.899 66.1078 114.099 66.5198 114.138 66.9614C114.138 68.2414 113.138 69.1114 111.268 69.1114L108.488 69.1014ZM110.488 64.8614H110.838C110.966 64.881 111.097 64.8717 111.221 64.8342C111.345 64.7968 111.459 64.7321 111.555 64.6449C111.651 64.5576 111.726 64.4501 111.775 64.3301C111.824 64.2102 111.846 64.0808 111.838 63.9514C111.84 63.849 111.82 63.7475 111.781 63.6531C111.741 63.5587 111.682 63.4735 111.608 63.403C111.534 63.3326 111.445 63.2782 111.349 63.2435C111.253 63.2088 111.15 63.1945 111.048 63.2014H110.488V64.8614ZM110.488 67.9614H110.868C111.012 67.9848 111.16 67.9763 111.3 67.9366C111.441 67.897 111.571 67.827 111.681 67.7317C111.792 67.6364 111.88 67.5181 111.94 67.385C112 67.2519 112.03 67.1073 112.028 66.9614C112.028 66.4114 111.758 66.0414 111.028 66.0414H110.458L110.488 67.9614ZM119.208 63.3814H117.148V64.7714H119.148V66.0914H117.148V67.7814H119.618V69.1014H115.128V62.1014H119.208V63.3814ZM122.118 69.1014V66.3714L120.118 62.1714L122.298 61.9714C122.683 62.9807 123.017 64.0087 123.298 65.0514V65.0514C123.644 64.003 124.048 62.9748 124.508 61.9714L126.128 62.1714L124.058 66.3714V69.1014H122.118ZM126.478 65.5014C126.443 65.0411 126.502 64.5783 126.654 64.1422C126.806 63.7061 127.046 63.3061 127.36 62.9672C127.673 62.6284 128.054 62.358 128.477 62.1731C128.9 61.9882 129.357 61.8928 129.818 61.8928C130.28 61.8928 130.737 61.9882 131.16 62.1731C131.583 62.358 131.963 62.6284 132.277 62.9672C132.59 63.3061 132.831 63.7061 132.982 64.1422C133.134 64.5783 133.194 65.0411 133.158 65.5014C133.158 67.6014 131.888 69.2214 129.818 69.2214C127.748 69.2214 126.508 67.6014 126.508 65.5014H126.478ZM131.048 65.5014C131.048 64.2614 130.688 63.4114 129.818 63.4114C128.948 63.4114 128.588 64.2614 128.588 65.5014C128.588 66.7414 128.918 67.7514 129.818 67.7514C130.718 67.7514 131.078 66.8314 131.078 65.5014H131.048ZM140.298 69.1014H139.008C137.915 67.7985 136.913 66.4219 136.008 64.9814V64.9814V69.1014H134.418V62.1014H135.888C136.942 63.3671 137.907 64.7035 138.778 66.1014V66.1014V62.1014H140.378L140.298 69.1014ZM144.298 62.1014C146.978 62.1014 148.018 63.7114 148.018 65.4114C148.05 65.9151 147.973 66.4199 147.792 66.8911C147.612 67.3624 147.331 67.7891 146.971 68.1422C146.61 68.4953 146.177 68.7665 145.702 68.9372C145.227 69.1079 144.721 69.1741 144.218 69.1314H141.688V62.1314L144.298 62.1014ZM143.708 67.8114H144.228C145.388 67.8114 145.938 66.8114 145.938 65.4214C145.938 64.1514 145.178 63.4214 144.298 63.4214H143.708V67.8114ZM154.348 69.1314V66.3714L152.348 62.1714L154.518 61.9714C154.903 62.9807 155.237 64.0087 155.518 65.0514V65.0514C155.867 64.0027 156.274 62.9744 156.738 61.9714L158.348 62.1714L156.288 66.3714V69.1014L154.348 69.1314ZM158.718 65.5314C158.682 65.0711 158.742 64.6083 158.894 64.1722C159.046 63.7361 159.286 63.3361 159.6 62.9972C159.913 62.6584 160.294 62.388 160.717 62.2031C161.14 62.0182 161.597 61.9228 162.058 61.9228C162.52 61.9228 162.977 62.0182 163.4 62.2031C163.823 62.388 164.203 62.6584 164.517 62.9972C164.83 63.3361 165.071 63.7361 165.222 64.1722C165.374 64.6083 165.434 65.0711 165.398 65.5314C165.398 67.6314 164.118 69.2514 162.058 69.2514C159.998 69.2514 158.788 67.6014 158.788 65.5014L158.718 65.5314ZM163.288 65.5314C163.288 64.2914 162.918 63.4414 162.058 63.4414C161.198 63.4414 160.828 64.2914 160.828 65.5314C160.828 66.7714 161.158 67.7814 162.058 67.7814C162.958 67.7814 163.358 66.8314 163.358 65.5014L163.288 65.5314ZM168.518 62.1014V65.7714C168.518 67.0414 168.698 67.7714 169.518 67.7714C170.188 67.7714 170.568 67.0714 170.568 65.7714V62.0714H172.318V66.3214C172.357 66.7119 172.309 67.1061 172.177 67.4757C172.045 67.8452 171.833 68.1809 171.555 68.4583C171.278 68.7358 170.942 68.9482 170.572 69.0802C170.203 69.2121 169.809 69.2604 169.418 69.2214C167.698 69.2214 166.418 68.4714 166.418 66.3714V62.0714L168.518 62.1014ZM173.738 62.1014H176.738C178.328 62.1014 179.178 62.8214 179.178 63.9814C179.202 64.3881 179.108 64.793 178.908 65.1477C178.707 65.5024 178.409 65.7919 178.048 65.9814L179.538 68.9814L177.368 69.2114L176.298 66.4314H175.768V69.0914H173.768L173.738 62.1014ZM175.738 65.1014H176.318C176.428 65.0988 176.536 65.0745 176.637 65.0297C176.737 64.985 176.828 64.9207 176.903 64.8407C176.978 64.7607 177.037 64.6665 177.076 64.5637C177.114 64.4608 177.132 64.3512 177.128 64.2414C177.146 64.1248 177.137 64.0055 177.101 63.8931C177.065 63.7807 177.003 63.6782 176.921 63.5938C176.838 63.5094 176.737 63.4453 176.626 63.4067C176.514 63.3681 176.395 63.356 176.278 63.3714H175.738V65.1014ZM186.458 62.1014C189.148 62.1014 190.188 63.7114 190.188 65.4114C190.22 65.9151 190.143 66.4199 189.962 66.8911C189.782 67.3624 189.501 67.7891 189.141 68.1422C188.78 68.4953 188.347 68.7665 187.872 68.9372C187.397 69.1079 186.891 69.1741 186.388 69.1314H183.848V62.1314L186.458 62.1014ZM185.878 67.8114H186.398C187.558 67.8114 188.098 66.8114 188.098 65.4214C188.098 64.1514 187.348 63.4214 186.458 63.4214H186.008L185.878 67.8114ZM194.878 62.1014L197.438 69.1014H195.288L194.758 67.4214H192.678L192.028 69.1014H190.448L193.178 62.1014H194.878ZM194.428 66.3414C194.208 65.5014 194.018 64.8314 193.778 63.8214C193.518 64.8214 193.288 65.5014 193.038 66.3414H194.428ZM198.968 69.1314V63.3814H197.028V62.0714H203.008V63.3814H201.008V69.1014L198.968 69.1314ZM206.968 62.1314L209.518 69.1314H207.368L206.838 67.4514H204.758L204.118 69.1314H202.528L205.268 62.1314H206.968ZM206.518 66.3714C206.298 65.5314 206.108 64.8614 205.868 63.8514C205.608 64.8514 205.378 65.5314 205.128 66.3714H206.518Z" fill="white"/>
<path d="M86.8381 65.2214C81.3181 66.2914 73.7382 65.1214 69.1882 60.6214L78.8682 50.9414C80.1205 49.6904 81.1141 48.2048 81.792 46.5696C82.4699 44.9344 82.8187 43.1816 82.8187 41.4114C82.8187 39.6412 82.4699 37.8884 81.792 36.2532C81.1141 34.618 80.1205 33.1324 78.8682 31.8814L50.9382 3.9514C49.6864 2.69871 48.1999 1.70497 46.5638 1.02697C44.9278 0.348971 43.1742 0 41.4032 0C39.6322 0 37.8786 0.348971 36.2426 1.02697C34.6065 1.70497 33.12 2.69871 31.8682 3.9514L3.93823 31.8914C1.41623 34.4218 0 37.8488 0 41.4214C0 44.994 1.41623 48.421 3.93823 50.9514L31.8682 78.8914C33.12 80.1441 34.6065 81.1378 36.2426 81.8158C37.8786 82.4938 39.6322 82.8428 41.4032 82.8428C43.1742 82.8428 44.9278 82.4938 46.5638 81.8158C48.1999 81.1378 49.6864 80.1441 50.9382 78.8914L60.5282 69.3014C67.5282 73.3014 77.3081 73.5414 87.0781 65.8014C87.1162 65.7856 87.1509 65.7625 87.1801 65.7334C87.2092 65.7043 87.2323 65.6697 87.248 65.6316C87.2638 65.5935 87.272 65.5527 87.272 65.5115C87.272 65.4703 87.2639 65.4295 87.2482 65.3914C87.2324 65.3533 87.2093 65.3187 87.1802 65.2896C87.151 65.2604 87.1164 65.2373 87.0784 65.2215C87.0403 65.2057 86.9995 65.1976 86.9583 65.1976C86.917 65.1975 86.8762 65.2056 86.8381 65.2214V65.2214ZM48.0082 75.7814C47.1388 76.6525 46.1062 77.3436 44.9694 77.8151C43.8326 78.2867 42.6139 78.5294 41.3832 78.5294C40.1525 78.5294 38.9338 78.2867 37.797 77.8151C36.6602 77.3436 35.6276 76.6525 34.7582 75.7814L7.00818 48.0414C5.25072 46.2825 4.26355 43.8978 4.26355 41.4114C4.26355 38.925 5.25072 36.5403 7.00818 34.7814L34.7582 7.0414C35.6276 6.1703 36.6602 5.47921 37.797 5.00768C38.9338 4.53615 40.1525 4.29343 41.3832 4.29343C42.6139 4.29343 43.8326 4.53615 44.9694 5.00768C46.1062 5.47921 47.1388 6.1703 48.0082 7.0414L75.7582 34.7814C77.5156 36.5403 78.5028 38.925 78.5028 41.4114C78.5028 43.8978 77.5156 46.2825 75.7582 48.0414L48.0082 75.7814Z" fill="white"/>
<path d="M41.4082 9.26141C40.8347 9.27566 40.2697 9.40295 39.7455 9.63597C39.2213 9.86899 38.7482 10.2032 38.3534 10.6193C37.9586 11.0355 37.6498 11.5255 37.4447 12.0613C37.2396 12.597 37.1422 13.168 37.1582 13.7414V41.7414C37.1182 41.1588 37.1984 40.5741 37.3939 40.0238C37.5894 39.4735 37.8959 38.9692 38.2944 38.5424C38.693 38.1155 39.1752 37.7752 39.7108 37.5425C40.2464 37.3098 40.8242 37.1897 41.4082 37.1897C41.9922 37.1897 42.5699 37.3098 43.1056 37.5425C43.6412 37.7752 44.1233 38.1155 44.5218 38.5424C44.9204 38.9692 45.227 39.4735 45.4225 40.0238C45.618 40.5741 45.6982 41.1588 45.6582 41.7414V13.7414C45.6742 13.168 45.5768 12.597 45.3717 12.0613C45.1666 11.5255 44.8578 11.0355 44.463 10.6193C44.0682 10.2032 43.5951 9.86899 43.0709 9.63597C42.5467 9.40295 41.9817 9.27566 41.4082 9.26141V9.26141Z" fill="white" fill-opacity="0.37"/>
<path d="M13.6981 45.7114C16.0453 45.7114 17.9481 43.8086 17.9481 41.4614C17.9481 39.1142 16.0453 37.2114 13.6981 37.2114C11.3509 37.2114 9.44812 39.1142 9.44812 41.4614C9.44812 43.8086 11.3509 45.7114 13.6981 45.7114Z" fill="white"/>
<path d="M27.5482 45.1014C26.3632 45.0367 25.2517 44.5065 24.4557 43.6263C23.6597 42.746 23.2437 41.5869 23.2982 40.4014V55.2814C23.2406 55.8742 23.3076 56.4724 23.495 57.0377C23.6824 57.603 23.986 58.1229 24.3862 58.5639C24.7865 59.0049 25.2745 59.3573 25.8191 59.5985C26.3636 59.8396 26.9527 59.9642 27.5482 59.9642C28.1438 59.9642 28.7327 59.8396 29.2772 59.5985C29.8218 59.3573 30.3098 59.0049 30.7101 58.5639C31.1103 58.1229 31.4139 57.603 31.6013 57.0377C31.7887 56.4724 31.8558 55.8742 31.7982 55.2814V40.4014C31.8554 41.5876 31.4402 42.7482 30.6437 43.629C29.8471 44.5099 28.7342 45.0393 27.5482 45.1014V45.1014Z" fill="white" fill-opacity="0.37"/>
<path d="M27.5482 22.9414C26.3837 22.9832 25.283 23.4841 24.4867 24.3348C23.6904 25.1854 23.2631 26.3167 23.2982 27.4814V41.8914C23.2582 41.3088 23.3385 40.7241 23.5339 40.1738C23.7294 39.6235 24.0359 39.1192 24.4344 38.6924C24.833 38.2655 25.3151 37.9252 25.8507 37.6925C26.3863 37.4598 26.9642 37.3397 27.5482 37.3397C28.1322 37.3397 28.71 37.4598 29.2456 37.6925C29.7812 37.9252 30.2633 38.2655 30.6619 38.6924C31.0604 39.1192 31.367 39.6235 31.5625 40.1738C31.758 40.7241 31.8382 41.3088 31.7982 41.8914V27.4814C31.836 26.316 31.4095 25.1832 30.6127 24.3319C29.8158 23.4807 28.7136 22.9805 27.5482 22.9414V22.9414Z" fill="white" fill-opacity="0.71"/>
<path d="M55.2582 22.9414C54.0928 22.9805 52.9906 23.4807 52.1937 24.3319C51.3968 25.1832 50.9704 26.316 51.0082 27.4814V41.8914C50.9682 41.3088 51.0484 40.7241 51.2439 40.1738C51.4394 39.6235 51.746 39.1192 52.1445 38.6924C52.5431 38.2655 53.0251 37.9252 53.5608 37.6925C54.0964 37.4598 54.6742 37.3397 55.2582 37.3397C55.8422 37.3397 56.4199 37.4598 56.9556 37.6925C57.4912 37.9252 57.9733 38.2655 58.3718 38.6924C58.7704 39.1192 59.077 39.6235 59.2725 40.1738C59.4679 40.7241 59.5482 41.3088 59.5082 41.8914V27.4814C59.5459 26.316 59.1195 25.1832 58.3226 24.3319C57.5257 23.4807 56.4236 22.9805 55.2582 22.9414V22.9414Z" fill="white" fill-opacity="0.71"/>
<path d="M55.2582 45.6614C54.0946 45.6222 52.9939 45.1235 52.1973 44.2744C51.4007 43.4253 50.9732 42.2951 51.0082 41.1314V55.4614C50.9732 56.6242 51.4011 57.7533 52.1979 58.6008C52.9948 59.4483 54.0955 59.9448 55.2582 59.9814V59.9814C56.4209 59.9448 57.5217 59.4483 58.3185 58.6008C59.1154 57.7533 59.5432 56.6242 59.5082 55.4614V41.1314C59.5433 42.2951 59.1157 43.4253 58.3191 44.2744C57.5225 45.1235 56.4218 45.6222 55.2582 45.6614V45.6614Z" fill="white" fill-opacity="0.37"/>
<path d="M27.5481 45.7114C29.8953 45.7114 31.7981 43.8086 31.7981 41.4614C31.7981 39.1142 29.8953 37.2114 27.5481 37.2114C25.2009 37.2114 23.2981 39.1142 23.2981 41.4614C23.2981 43.8086 25.2009 45.7114 27.5481 45.7114Z" fill="white"/>
<path d="M37.1581 41.6314V69.4914C37.1421 70.6374 37.5799 71.7432 38.3762 72.5675C39.1724 73.3918 40.2623 73.8678 41.4081 73.8914C41.9703 73.8897 42.5262 73.7736 43.0419 73.5501C43.5577 73.3266 44.0225 73.0004 44.4081 72.5914C45.2148 71.7536 45.6632 70.6344 45.6581 69.4714V41.6314C45.6616 42.7971 45.2136 43.9188 44.4081 44.7614C44.022 45.1691 43.5569 45.4937 43.0411 45.7155C42.5253 45.9373 41.9696 46.0516 41.4081 46.0514L37.1581 41.6314Z" fill="white"/>
<path d="M41.4082 41.5114C42.2067 41.5165 42.9972 41.353 43.7281 41.0314C44.2726 40.8268 44.7335 40.4468 45.0382 39.9514C45.4182 40.3514 45.6582 47.8714 45.6582 48.4814C45.6582 49.0914 45.5082 56.3814 45.2482 56.7514C45.1829 57.4329 44.8865 58.0716 44.4082 58.5614C44.0226 58.9704 43.5578 59.2966 43.042 59.5201C42.5262 59.7436 41.9703 59.8597 41.4082 59.8614C40.5707 59.8585 39.7581 59.5753 39.1002 59.057C38.4423 58.5387 37.977 57.815 37.7782 57.0014C37.3982 56.6014 37.1582 49.0914 37.1582 48.4814C37.1582 47.6314 37.6182 39.9314 38.2882 39.5614C38.5882 39.4014 41.0082 41.5114 41.4082 41.5114Z" fill="white"/>
<path d="M45.6582 41.6314C45.6602 42.7949 45.2165 43.915 44.4182 44.7614C44.0307 45.1668 43.5651 45.4894 43.0495 45.7098C42.5339 45.9303 41.9789 46.0439 41.4182 46.0439C40.8574 46.0439 40.3025 45.9303 39.7868 45.7098C39.2712 45.4894 38.8056 45.1668 38.4182 44.7614C37.6127 43.9188 37.1647 42.7971 37.1682 41.6314C37.1494 40.4837 37.586 39.3753 38.3825 38.5489C39.179 37.7224 40.2706 37.2451 41.4182 37.2214C41.9793 37.2235 42.5342 37.3389 43.0497 37.5605C43.5651 37.7822 44.0306 38.1056 44.4182 38.5114C45.2168 39.3536 45.6607 40.4708 45.6582 41.6314V41.6314Z" fill="white"/>
<path d="M41.4081 45.8814C43.7553 45.8814 45.6581 43.9428 45.6581 41.5514C45.6581 39.16 43.7553 37.2214 41.4081 37.2214C39.0609 37.2214 37.1581 39.16 37.1581 41.5514C37.1581 43.9428 39.0609 45.8814 41.4081 45.8814Z" fill="white"/>
<path d="M41.4081 45.7114C43.7553 45.7114 45.6581 43.8086 45.6581 41.4614C45.6581 39.1142 43.7553 37.2114 41.4081 37.2114C39.0609 37.2114 37.1581 39.1142 37.1581 41.4614C37.1581 43.8086 39.0609 45.7114 41.4081 45.7114Z" fill="white"/>
<path d="M55.2582 45.7114C57.6054 45.7114 59.5082 43.8086 59.5082 41.4614C59.5082 39.1142 57.6054 37.2114 55.2582 37.2114C52.911 37.2114 51.0082 39.1142 51.0082 41.4614C51.0082 43.8086 52.911 45.7114 55.2582 45.7114Z" fill="white"/>
<path d="M69.1182 45.7114C71.4654 45.7114 73.3682 43.8086 73.3682 41.4614C73.3682 39.1142 71.4654 37.2114 69.1182 37.2114C66.771 37.2114 64.8682 39.1142 64.8682 41.4614C64.8682 43.8086 66.771 45.7114 69.1182 45.7114Z" fill="white"/>
</svg>
