<svg xmlns="http://www.w3.org/2000/svg" xmlns:xlink="http://www.w3.org/1999/xlink" viewBox="0 0 87.21 82.82"><defs><style>.cls-1{fill:#727272;}.cls-2{fill:gray;}.cls-3{fill:url(#Sfumatura_senza_nome_3);}.cls-4{fill:#a2a2a2;}</style><linearGradient id="Sfumatura_senza_nome_3" x1="43.6" y1="82.82" x2="43.6" gradientUnits="userSpaceOnUse"><stop offset="0" stop-color="gray"/><stop offset="1" stop-color="#a2a2a2"/></linearGradient></defs><title>Ресурс 1</title><g id="Слой_2" data-name="Слой 2"><g id="Logo_Telleee" data-name="Logo Telleee"><g id="Logo_Grey"><circle class="cls-1" cx="13.7" cy="41.46" r="4.25"/><circle class="cls-2" cx="13.7" cy="41.46" r="4.25"/><path class="cls-3" d="M86.83,65.22c-5.51,1.07-13.09-.1-17.65-4.6l9.69-9.68a13.5,13.5,0,0,0,0-19.06L50.94,4A13.48,13.48,0,0,0,31.87,4L3.94,31.88a13.5,13.5,0,0,0,0,19.06L31.87,78.87a13.48,13.48,0,0,0,19.07,0l9.59-9.59c7,4,16.78,4.24,26.55-3.5A.31.31,0,0,0,86.83,65.22ZM48,75.78a9.36,9.36,0,0,1-13.25,0L7,48A9.38,9.38,0,0,1,7,34.78L34.78,7A9.36,9.36,0,0,1,48,7L75.78,34.78a9.38,9.38,0,0,1,0,13.26Z"/><path class="cls-4" d="M45.66,13.74v28a4.26,4.26,0,1,0-8.5,0v-28a4.26,4.26,0,1,1,8.5,0Z"/><path class="cls-4" d="M27.55,45.1a4.49,4.49,0,0,1-4.25-4.7V55.28A4.49,4.49,0,0,0,27.55,60a4.49,4.49,0,0,0,4.25-4.7V40.4A4.49,4.49,0,0,1,27.55,45.1Z"/><path class="cls-4" d="M27.55,22.94a4.41,4.41,0,0,0-4.25,4.54V41.84a4.4,4.4,0,0,1,4.25-4.53,4.4,4.4,0,0,1,4.25,4.53V27.48A4.41,4.41,0,0,0,27.55,22.94Z"/><path class="cls-4" d="M55.26,22.94A4.41,4.41,0,0,0,51,27.48V41.84a4.26,4.26,0,1,1,8.5,0V27.48A4.41,4.41,0,0,0,55.26,22.94Z"/><path class="cls-4" d="M55.26,45.66A4.4,4.4,0,0,1,51,41.13V55.46A4.39,4.39,0,0,0,55.26,60h0a4.39,4.39,0,0,0,4.25-4.52V41.13A4.4,4.4,0,0,1,55.26,45.66Z"/><path class="cls-2" d="M37.16,41.63V69.49a4.34,4.34,0,0,0,4.25,4.42,4.16,4.16,0,0,0,3-1.3,4.47,4.47,0,0,0,1.25-3.12V41.63a4.51,4.51,0,0,1-1.25,3.13,4.15,4.15,0,0,1-3,1.29Z"/><path class="cls-2" d="M41.41,41.51A5.71,5.71,0,0,0,43.73,41,2.54,2.54,0,0,0,45,40c.39.4.63,7.92.63,8.53s-.16,7.9-.41,8.27a3.06,3.06,0,0,1-.84,1.81,4.16,4.16,0,0,1-3,1.3A3.75,3.75,0,0,1,37.78,57c-.38-.4-.62-7.91-.62-8.52,0-.85.46-8.55,1.13-8.92C38.59,39.4,41.05,41.51,41.41,41.51Z"/><path class="cls-2" d="M45.66,41.63a4.51,4.51,0,0,1-1.25,3.13,4.13,4.13,0,0,1-6,0,4.51,4.51,0,0,1-1.25-3.13,4.33,4.33,0,0,1,4.25-4.41,4.15,4.15,0,0,1,3,1.29A4.5,4.5,0,0,1,45.66,41.63Z"/><ellipse class="cls-2" cx="41.41" cy="41.55" rx="4.25" ry="4.33"/><circle class="cls-2" cx="41.41" cy="41.46" r="4.25"/><circle class="cls-2" cx="55.26" cy="41.46" r="4.25"/><circle class="cls-2" cx="69.11" cy="41.46" r="4.25"/><circle class="cls-2" cx="27.55" cy="41.46" r="4.25"/></g></g></g></svg>