<?xml version="1.0" encoding="utf-8"?>
<!-- Generator: Adobe Illustrator 22.1.0, SVG Export Plug-In . SVG Version: 6.00 Build 0)  -->
<svg version="1.1" id="Layer_1" xmlns="http://www.w3.org/2000/svg" xmlns:xlink="http://www.w3.org/1999/xlink" x="0px" y="0px"
	 viewBox="0 0 195 60" style="enable-background:new 0 0 195 60;" xml:space="preserve">
<style type="text/css">
	.st0{fill:#FFFFFF;}
</style>
<path id="path14" class="st0" d="M16,24.8L16,24.8c3.6-4.8,9.3-7.9,15.8-7.9c4.9,0,9.4,1.8,12.9,4.8c-0.7,0.8-1.5,1.6-2.2,2.4
	c-2.9-2.4-6.6-3.9-10.6-3.9c-4.5,0-8.5,1.8-11.4,4.7l-0.1,0.1L20.1,25L20,25.1l-0.1,0.1l-0.2,0.2l-0.1,0.1l-0.1,0.2l-0.1,0.2
	l-0.1,0.1L19.2,26l-0.2,0.2l0,0.1l-0.2,0.2l0,0.1l-0.2,0.2l0,0L18.4,27l0,0l-0.2,0.2l-0.1,0.1L18,27.6l0,0l0,0l-0.2,0.3l0,0
	c-0.2,0.4-0.5,0.8-0.7,1.2v0c-0.6,1.2-1.1,2.5-1.4,3.9h0c-0.3,1.1-0.4,2.3-0.4,3.6c0,3.5,1.1,6.8,3,9.5l-2,2.7
	c-2.7-3.4-4.3-7.6-4.3-12.3c0-3,0.7-5.9,1.9-8.4l0,0c0.1-0.1,0.1-0.2,0.2-0.3l0,0c0.1-0.3,0.3-0.5,0.4-0.7l0,0
	c0.2-0.4,0.4-0.7,0.6-1.1l0,0C15.5,25.5,15.7,25.2,16,24.8"/>
<path id="path16" class="st0" d="M22,35.7L22,35.7l0,0.3v0l0,0l0,0l0,0.1l0,0l0,0l0,0l0,0l0,0v0l0,0l0,0l0,0l0,0v0l0,0l0,0v0l0,0
	l0,0v0l0,0v0l0,0v0v0l0,0v0l0,0v0v0l0,0v0v0v0l0,0v0v0v0v0v0l0,0.2v0l0,0l0,0.2l0,0l0,0l0,0.2l0,0l0,0.2l0,0l0,0.2l0,0l0,0.2l0,0
	l0,0l0,0.2l0,0l0,0l0,0.2l0,0l0,0l0,0l0,0.2l0,0l0,0.2l0,0l0,0l0.1,0.2l0,0l0,0.2l0,0.1l0,0.1l0,0.1l0,0.1l0,0l0.1,0.2l0,0l0,0
	l0.1,0.2l0,0l0,0l0.1,0.2l0,0l0,0l0,0l0.1,0.1l0,0l0,0l0.1,0.1l0,0l0,0.1L23,41l0,0.1l0,0l0.1,0.1l0,0l0,0.1l0,0l0.1,0.1l0,0.1
	l0,0.1l0.1,0.1l0,0l0,0l0.1,0.1l0,0l0,0l0.1,0.1l0.1,0.1l0.1,0.1l0,0l0.1,0.1l0,0l0.1,0.1l0.1,0.1l0,0l0.1,0.1l0.1,0.1l0,0l0.1,0.1
	l0.1,0.1l0,0l0.1,0.1l0,0l0,0l0.1,0.1l0.1,0.1l0,0l0.1,0.1l0.1,0.1l0,0l0.1,0.1l0.1,0.1l0,0l0.1,0.1l0,0c1.3,1.2,3,2.1,4.8,2.4
	c-0.2,3.3,0,0-0.2,3.3c-2.7-0.4-5.2-1.6-7.1-3.4L22.6,46l-0.1-0.1l0,0l-0.1-0.1l-0.1-0.1l0,0c-0.2-0.2-0.4-0.4-0.5-0.6l-0.1-0.1l0,0
	l-0.1-0.1l-0.1-0.1l-0.1-0.1l-0.1-0.1l-0.1-0.1L21,44.1l-0.1-0.1l-0.1-0.1l-0.1-0.1l-0.1-0.1l-0.1-0.1l-0.1-0.1l-0.1-0.1l-0.1-0.1
	l0,0L20.3,43l-0.1-0.1l0,0l-0.1-0.1l0,0l-0.1-0.1l0,0L20,42.4l0,0l-0.1-0.2l0,0l-0.1-0.1l0,0l-0.1-0.2l0-0.1l-0.1-0.1l-0.1-0.2l0,0
	l-0.1-0.2l0,0l0,0L19.4,41l0-0.1l-0.1-0.2l0-0.1l-0.1-0.2l0-0.1l-0.1-0.2l0-0.1l-0.1-0.2l0-0.1L19,39.5l0,0l0,0l-0.1-0.3l0,0
	l-0.1-0.3l0,0l0,0v0c0-0.2-0.1-0.4-0.1-0.6l0-0.1l0-0.2l0-0.1c0-0.1,0-0.2,0-0.3l0,0c0-0.1,0-0.2,0-0.3v0l0-0.3l0,0l0-0.1l0-0.3v0v0
	v0v0v0v0l0,0v0v0v0v0l0,0v0v0l0,0v0v0l0,0v0l0,0v0v0l0,0v0l0,0v0l0,0v0l0,0l0,0l0,0l0,0l0,0l0,0v0l0,0l0,0l0,0l0,0v0l0,0l0,0l0,0
	l0,0l0-0.2v0c0.1-1,0.2-1.9,0.5-2.9l0,0l0.1-0.2l0,0l0.1-0.2l0-0.1l0.1-0.2l0,0c0.1-0.2,0.1-0.3,0.2-0.5l0,0l0.1-0.2l0,0l0.1-0.2
	l0.1-0.2l0-0.1c0.1-0.1,0.1-0.3,0.2-0.4h0l0.1-0.2l0,0l0.1-0.2l0,0l0.1-0.2l0.1-0.1l0.1-0.1l0.1-0.1l0,0l0.1-0.2l0,0l0.1-0.2l0,0
	L21,29l0,0l0,0l0.1-0.1l0.1-0.1l0.1-0.1l0.1-0.1l0.1-0.1l0.1-0.1l0.1-0.1l0-0.1l0,0l0.1-0.2l0,0l0,0l0.1-0.2l0,0l0.1-0.1l0,0
	l0.1-0.1l0,0l0.1-0.1l0,0l0.1-0.1l0,0l0.2-0.1l0.2-0.2l0,0l0.2-0.1l0,0l0.1-0.1l0,0c0.1-0.1,0.2-0.2,0.3-0.3l0.1,0
	c2.2-1.7,5-2.8,8.1-2.8c3.2,0,6.2,1.2,8.4,3.1c-0.7,0.8-1.5,1.6-2.2,2.5c-1.7-1.4-3.9-2.3-6.3-2.3l-0.2,0l-0.1,0l-0.2,0l-0.1,0
	c-0.1,0-0.3,0-0.4,0l-0.1,0l-0.2,0l-0.1,0l-0.1,0l-0.1,0l0,0l-0.2,0l0,0l-0.1,0l-0.2,0l-0.1,0l-0.2,0l-0.1,0l-0.2,0l0,0l0,0l-0.2,0
	l0,0l-0.1,0l-0.1,0l-0.1,0l-0.2,0.1l0,0l0,0l-0.2,0.1l0,0l-0.1,0l-0.1,0l-0.1,0L28,27.5l0,0l-0.2,0.1l0,0l-0.1,0l-0.1,0.1l-0.1,0
	l-0.1,0.1l-0.1,0l-0.1,0.1l-0.1,0l0,0l0,0L26.9,28l0,0l-0.2,0.1l-0.1,0l-0.1,0l-0.1,0.1l-0.2,0.1l0,0l-0.1,0.1l-0.1,0.1L26,28.6
	L26,28.6l-0.1,0.1l0,0l-0.1,0.1l0,0l-0.1,0.1l0,0L25.5,29l-0.1,0.1l-0.1,0.1l-0.2,0.1l0,0L25,29.4l0,0l-0.1,0.1l-0.1,0.1l-0.1,0.1
	l-0.1,0.1l0,0l0,0l-0.1,0.1l0,0l0,0l-0.1,0.1l0,0l-0.1,0.1l-0.1,0.1l0,0L24,30.5l0,0l-0.1,0.1l0,0l-0.1,0.1l-0.1,0.1l-0.1,0.1l0,0
	L23.6,31l0,0l-0.1,0.2l0,0l-0.1,0.1l-0.1,0.1l0,0.1l-0.1,0.2l0,0l0,0l-0.1,0.2l-0.1,0.1l0,0.1l0,0.1l0,0.1l0,0.1l0,0l-0.1,0.2l0,0.1
	l-0.1,0.1l0,0.1l0,0.1l0,0.1C22.3,33.8,22,34.8,22,35.7"/>
<path id="path18" class="st0" d="M31.8,10.3c6.7,0,12.8,2.5,17.4,6.6c-0.8,0.8-1.5,1.5-2.3,2.4c-4-3.5-9.3-5.7-15.1-5.7
	c-8.4,0-15.7,4.5-19.7,11.2L11.9,25l-0.1,0.2l0,0l-0.2,0.3l-0.1,0.2l-0.2,0.3l0,0l-0.1,0.2l-0.1,0.2l-0.1,0.2L11,26.8l0,0L10.9,27
	l0,0l-0.1,0.3l-0.1,0.3l-0.1,0.1L10.5,28l-0.1,0.1l-0.1,0.3l0,0.1L10.1,29l0,0.1c0,0.1-0.1,0.3-0.1,0.4l0,0.1l0,0
	c0,0.1-0.1,0.3-0.1,0.4l0,0l0,0l0,0c0,0.2-0.1,0.3-0.1,0.5l0,0c0,0.1-0.1,0.3-0.1,0.5l0,0.1c0,0.2-0.1,0.3-0.1,0.5l0,0
	c-0.1,0.5-0.2,1-0.3,1.5h0c-0.2,1.2-0.3,2.3-0.3,3.6c0,1.4,0.1,2.8,0.4,4.2l-2.9,2.1c-0.5-2-0.8-4.2-0.8-6.4c0-3.3,0.6-6.4,1.7-9.3
	l0,0c0.1-0.2,0.1-0.3,0.2-0.5l0,0l0,0c0.1-0.2,0.1-0.3,0.2-0.5l0,0c0.1-0.2,0.1-0.3,0.2-0.5l0.1-0.1c0.1-0.1,0.1-0.3,0.2-0.4l0-0.1
	l0.1-0.2h0C12.6,16.2,21.5,10.3,31.8,10.3"/>
<path class="st0" d="M31.8,30c-3.6,0-6.6,2.9-6.6,6.6c0,3.6,2.9,6.6,6.6,6.6c3.6,0,6.6-2.9,6.6-6.6C38.3,32.9,35.4,30,31.8,30z
	 M31.8,39.8c-1.8,0-3.3-1.5-3.3-3.3c0-1.8,1.5-3.3,3.3-3.3c1.8,0,3.3,1.5,3.3,3.3C35.1,38.4,33.6,39.8,31.8,39.8z"/>
<path id="path22" class="st0" d="M68.5,23.5c-0.9,0.8-2,1.8-3.3,3.1c-1.3,1.3-2.6,2.6-4.1,4.1c-1.4,1.5-2.8,3-4.2,4.5
	c-1.4,1.6-2.6,3-3.7,4.4h11.7L64.1,43H47.4l0.6-2.6c0.6-0.8,1.3-1.7,2.1-2.6c0.8-0.9,1.6-1.9,2.4-2.9c0.9-1,1.7-2,2.7-3
	c0.9-1,1.8-2,2.8-2.9c0.9-1,1.8-1.9,2.7-2.7c0.9-0.9,1.7-1.6,2.4-2.3H52.5l0.8-3.5h15.9L68.5,23.5z M174.8,43l5.4-22.6h14l-0.8,3.4
	h-9.9l-1.3,5.7h8.8l-0.8,3.4h-8.8l-1.6,6.7h10.7l-0.8,3.4H174.8z M164,40.1c0.6,0,1.2-0.1,1.7-0.2c0.6-0.1,1.1-0.3,1.6-0.6
	c0.5-0.3,0.8-0.6,1.1-1.1c0.3-0.4,0.4-1,0.4-1.7c0-0.5-0.1-0.9-0.3-1.3c-0.2-0.4-0.5-0.7-0.9-1c-0.4-0.3-0.8-0.5-1.3-0.8
	c-0.5-0.2-1-0.5-1.5-0.8c-0.6-0.3-1.1-0.6-1.6-1c-0.5-0.4-1-0.8-1.4-1.2c-0.4-0.5-0.7-1-0.9-1.6c-0.2-0.6-0.3-1.3-0.3-2.1
	c0-1,0.2-1.9,0.6-2.8c0.4-0.8,0.9-1.6,1.7-2.2c0.7-0.6,1.7-1.1,2.8-1.4c1.1-0.3,2.4-0.5,3.8-0.5c0.7,0,1.3,0.1,1.9,0.2
	c0.6,0.1,1.2,0.2,1.7,0.4c0.5,0.2,1,0.3,1.4,0.5c0.4,0.2,0.7,0.4,1,0.6l-1.8,3.1c-0.5-0.4-1.1-0.7-1.9-0.9c-0.8-0.3-1.7-0.4-2.7-0.4
	c-0.6,0-1.1,0.1-1.7,0.2c-0.5,0.1-1,0.3-1.4,0.6c-0.4,0.2-0.7,0.6-0.9,1c-0.2,0.4-0.3,0.9-0.3,1.4c0,0.5,0.1,0.9,0.2,1.2
	c0.2,0.3,0.4,0.6,0.7,0.9c0.3,0.2,0.6,0.5,1,0.7c0.4,0.2,0.8,0.4,1.3,0.7c0.7,0.4,1.3,0.7,1.9,1.1c0.6,0.4,1.1,0.8,1.6,1.3
	c0.5,0.5,0.8,1,1.1,1.6c0.3,0.6,0.4,1.4,0.4,2.2c0,1.2-0.2,2.3-0.7,3.2c-0.5,0.9-1.1,1.7-1.9,2.3c-0.8,0.6-1.8,1-2.9,1.4
	c-1.1,0.3-2.4,0.5-3.7,0.5c-0.9,0-1.7-0.1-2.5-0.2c-0.7-0.1-1.4-0.3-2-0.5c-0.6-0.2-1.1-0.4-1.5-0.6c-0.4-0.2-0.8-0.4-1-0.6l1.8-3.2
	c0.2,0.2,0.5,0.3,0.9,0.5c0.4,0.2,0.8,0.4,1.2,0.5c0.5,0.2,1,0.3,1.5,0.4C162.8,40,163.4,40.1,164,40.1L164,40.1z M146.8,40.1
	c0.6,0,1.2-0.1,1.7-0.2c0.6-0.1,1.1-0.3,1.6-0.6c0.5-0.3,0.8-0.6,1.1-1.1c0.3-0.4,0.4-1,0.4-1.7c0-0.5-0.1-0.9-0.3-1.3
	c-0.2-0.4-0.5-0.7-0.9-1c-0.4-0.3-0.8-0.5-1.3-0.8c-0.5-0.2-1-0.5-1.5-0.8c-0.6-0.3-1.1-0.6-1.6-1c-0.5-0.4-1-0.8-1.4-1.2
	c-0.4-0.5-0.7-1-0.9-1.6c-0.2-0.6-0.3-1.3-0.3-2.1c0-1,0.2-1.9,0.6-2.8c0.4-0.8,0.9-1.6,1.7-2.2c0.7-0.6,1.7-1.1,2.8-1.4
	c1.1-0.3,2.4-0.5,3.8-0.5c0.7,0,1.3,0.1,1.9,0.2c0.6,0.1,1.2,0.2,1.7,0.4c0.5,0.2,1,0.3,1.4,0.5c0.4,0.2,0.7,0.4,1,0.6l-1.8,3.1
	c-0.5-0.4-1.1-0.7-1.9-0.9c-0.8-0.3-1.7-0.4-2.7-0.4c-0.6,0-1.1,0.1-1.7,0.2c-0.5,0.1-1,0.3-1.4,0.6c-0.4,0.2-0.7,0.6-0.9,1
	s-0.3,0.9-0.3,1.4c0,0.5,0.1,0.9,0.2,1.2c0.2,0.3,0.4,0.6,0.7,0.9c0.3,0.2,0.6,0.5,1,0.7c0.4,0.2,0.8,0.4,1.3,0.7
	c0.7,0.4,1.3,0.7,1.9,1.1c0.6,0.4,1.1,0.8,1.6,1.3c0.5,0.5,0.8,1,1.1,1.6c0.3,0.6,0.4,1.4,0.4,2.2c0,1.2-0.2,2.3-0.7,3.2
	c-0.5,0.9-1.1,1.7-1.9,2.3c-0.8,0.6-1.8,1-2.9,1.4c-1.1,0.3-2.4,0.5-3.7,0.5c-0.9,0-1.7-0.1-2.5-0.2c-0.7-0.1-1.4-0.3-2-0.5
	c-0.6-0.2-1.1-0.4-1.5-0.6c-0.4-0.2-0.8-0.4-1-0.6l1.8-3.2c0.2,0.2,0.5,0.3,0.9,0.5c0.4,0.2,0.8,0.4,1.2,0.5c0.5,0.2,1,0.3,1.5,0.4
	C145.7,40,146.2,40.1,146.8,40.1z M131.5,21.5l4.1-0.7l-1.2,5.1h5.6l-0.8,3.3h-5.6l-1.6,6.7c-0.1,0.5-0.2,0.9-0.2,1.2
	c0,0.3-0.1,0.6-0.1,0.9c0,0.3,0,0.5,0.1,0.8c0.1,0.2,0.2,0.5,0.3,0.7c0.2,0.2,0.4,0.3,0.7,0.5c0.3,0.1,0.7,0.2,1.3,0.2
	c0.6,0,1.2-0.1,1.7-0.2c0.5-0.2,1-0.3,1.4-0.5l0.3,3.2c-0.5,0.2-1.1,0.4-1.9,0.6c-0.8,0.2-1.6,0.3-2.7,0.3c-1.9,0-3.2-0.4-4-1.2
	c-0.8-0.8-1.2-1.9-1.2-3.3c0-0.5,0-1.1,0.1-1.6c0.1-0.6,0.2-1.1,0.3-1.8L131.5,21.5z M110.9,36.9c0-1.5,0.2-2.9,0.7-4.2
	c0.5-1.4,1.1-2.6,2-3.6c0.9-1.1,1.9-1.9,3.2-2.5c1.2-0.6,2.6-0.9,4.2-0.9c1.6,0,2.9,0.4,3.8,1.3c0.9,0.8,1.4,1.9,1.4,3.3
	c0,1.4-0.3,2.5-1,3.3c-0.7,0.8-1.5,1.5-2.6,2c-1.1,0.5-2.3,0.8-3.6,1c-1.4,0.2-2.7,0.3-4.1,0.3c0,0,0,0.1,0,0.1v0.3c0,2,1.2,3,3.7,3
	c1.5,0,3-0.3,4.4-0.9l0.3,3.2c-0.5,0.2-1.3,0.5-2.2,0.7c-1,0.2-2,0.4-3.3,0.4c-1.2,0-2.3-0.2-3.1-0.5c-0.9-0.3-1.6-0.8-2.1-1.4
	c-0.6-0.6-1-1.3-1.2-2.1C111,38.7,110.9,37.8,110.9,36.9L110.9,36.9z M120.4,28.8c-0.7,0-1.3,0.1-1.9,0.4c-0.6,0.3-1.1,0.6-1.6,1.1
	c-0.5,0.5-0.9,1-1.2,1.6c-0.3,0.6-0.6,1.3-0.7,2c2.6-0.1,4.5-0.4,5.7-0.9c1.2-0.5,1.8-1.4,1.8-2.4c0-0.4-0.2-0.8-0.5-1.2
	C121.7,29,121.2,28.8,120.4,28.8L120.4,28.8z M96.1,26.7c0.9-0.3,1.9-0.5,3-0.7c1.1-0.2,2.3-0.3,3.7-0.3c2,0,3.5,0.5,4.4,1.5
	c0.9,1,1.4,2.3,1.4,3.9c0,0.5,0,0.9-0.1,1.4c-0.1,0.5-0.2,1-0.3,1.6l-2.1,9H102l2-8.5c0.1-0.5,0.2-1,0.3-1.5c0.1-0.5,0.2-1,0.2-1.4
	c0-0.8-0.2-1.4-0.5-1.9c-0.4-0.5-1.1-0.7-2.2-0.7c-0.9,0-1.7,0.1-2.4,0.3L96.1,43h-4L96.1,26.7z M87.6,43h-3.9l4.1-17h3.9L87.6,43z
	 M90.5,23.4c-0.6,0-1.1-0.2-1.5-0.5c-0.4-0.3-0.7-0.9-0.7-1.6c0-0.8,0.3-1.5,0.8-2c0.6-0.5,1.2-0.8,1.9-0.8c0.6,0,1.1,0.2,1.5,0.5
	c0.4,0.4,0.7,0.9,0.7,1.6c0,0.8-0.3,1.5-0.8,2C91.9,23.2,91.2,23.4,90.5,23.4z M68,36.9c0-1.5,0.2-2.9,0.7-4.2
	c0.5-1.4,1.1-2.6,2-3.6c0.9-1.1,1.9-1.9,3.2-2.5c1.2-0.6,2.6-0.9,4.2-0.9c1.6,0,2.9,0.4,3.8,1.3c0.9,0.8,1.4,1.9,1.4,3.3
	c0,1.4-0.3,2.5-1,3.3c-0.7,0.8-1.5,1.5-2.6,2c-1.1,0.5-2.3,0.8-3.6,1c-1.4,0.2-2.7,0.3-4.1,0.3c0,0,0,0.1,0,0.1v0.3c0,2,1.2,3,3.7,3
	c1.5,0,3-0.3,4.4-0.9l0.3,3.2c-0.5,0.2-1.3,0.5-2.2,0.7c-1,0.2-2,0.4-3.3,0.4c-1.2,0-2.3-0.2-3.1-0.5c-0.9-0.3-1.6-0.8-2.1-1.4
	c-0.6-0.6-1-1.3-1.2-2.1C68.1,38.7,68,37.8,68,36.9L68,36.9z M77.5,28.8c-0.7,0-1.3,0.1-1.9,0.4c-0.6,0.3-1.1,0.6-1.6,1.1
	c-0.5,0.5-0.9,1-1.2,1.6c-0.3,0.6-0.6,1.3-0.7,2c2.6-0.1,4.5-0.4,5.7-0.9c1.2-0.5,1.8-1.4,1.8-2.4c0-0.4-0.2-0.8-0.5-1.2
	C78.8,29,78.2,28.8,77.5,28.8"/>
</svg>
