<?xml version="1.0" encoding="utf-8"?>
<!-- Generator: Adobe Illustrator 22.1.0, SVG Export Plug-In . SVG Version: 6.00 Build 0)  -->
<svg version="1.1" id="Layer_1" xmlns="http://www.w3.org/2000/svg" xmlns:xlink="http://www.w3.org/1999/xlink" x="0px" y="0px"
	 viewBox="0 0 60 60" style="enable-background:new 0 0 60 60;" xml:space="preserve">
<style type="text/css">
	.st0{fill:#FFFFFF;}
</style>
<g>
	<path id="path14" class="st0" d="M18,20.8L18,20.8c3.6-4.8,9.3-7.9,15.8-7.9c4.9,0,9.4,1.8,12.9,4.8c-0.7,0.8-1.5,1.6-2.2,2.4
		c-2.9-2.4-6.6-3.9-10.6-3.9c-4.5,0-8.5,1.8-11.4,4.7l-0.1,0.1L22.1,21L22,21.1l-0.1,0.1l-0.2,0.2l-0.1,0.1l-0.1,0.2l-0.1,0.2
		l-0.1,0.1L21.2,22l-0.2,0.2l0,0.1l-0.2,0.2l0,0.1l-0.2,0.2l0,0L20.4,23l0,0l-0.2,0.2l-0.1,0.1L20,23.6l0,0l0,0l-0.2,0.3l0,0
		c-0.2,0.4-0.5,0.8-0.7,1.2v0c-0.6,1.2-1.1,2.5-1.4,3.9h0c-0.3,1.1-0.4,2.3-0.4,3.6c0,3.5,1.1,6.8,3,9.5l-2,2.7
		c-2.7-3.4-4.3-7.6-4.3-12.3c0-3,0.7-5.9,1.9-8.4l0,0c0.1-0.1,0.1-0.2,0.2-0.3l0,0c0.1-0.3,0.3-0.5,0.4-0.7l0,0
		c0.2-0.4,0.4-0.7,0.6-1.1l0,0C17.5,21.5,17.7,21.2,18,20.8"/>
	<path id="path16" class="st0" d="M24,31.7L24,31.7l0,0.3v0l0,0l0,0l0,0.1l0,0l0,0l0,0l0,0l0,0v0l0,0l0,0l0,0l0,0v0l0,0l0,0v0l0,0
		l0,0v0l0,0v0l0,0v0v0l0,0v0l0,0v0v0l0,0v0v0v0l0,0v0v0v0v0v0l0,0.2v0l0,0l0,0.2l0,0l0,0l0,0.2l0,0l0,0.2l0,0l0,0.2l0,0l0,0.2l0,0
		l0,0l0,0.2l0,0l0,0l0,0.2l0,0l0,0l0,0l0,0.2l0,0l0,0.2l0,0l0,0l0.1,0.2l0,0l0,0.2l0,0.1l0,0.1l0,0.1l0,0.1l0,0l0.1,0.2l0,0l0,0
		l0.1,0.2l0,0l0,0l0.1,0.2l0,0l0,0l0,0l0.1,0.1l0,0l0,0l0.1,0.1l0,0l0,0.1L25,37l0,0.1l0,0l0.1,0.1l0,0l0,0.1l0,0l0.1,0.1l0,0.1
		l0,0.1l0.1,0.1l0,0l0,0l0.1,0.1l0,0l0,0l0.1,0.1l0.1,0.1l0.1,0.1l0,0l0.1,0.1l0,0l0.1,0.1l0.1,0.1l0,0l0.1,0.1l0.1,0.1l0,0l0.1,0.1
		l0.1,0.1l0,0l0.1,0.1l0,0l0,0l0.1,0.1l0.1,0.1l0,0l0.1,0.1l0.1,0.1l0,0l0.1,0.1l0.1,0.1l0,0l0.1,0.1l0,0c1.3,1.2,3,2.1,4.8,2.4
		c-0.2,3.3,0,0-0.2,3.3c-2.7-0.4-5.2-1.6-7.1-3.4L24.6,42l-0.1-0.1l0,0l-0.1-0.1l-0.1-0.1l0,0c-0.2-0.2-0.4-0.4-0.5-0.6l-0.1-0.1
		l0,0l-0.1-0.1l-0.1-0.1l-0.1-0.1l-0.1-0.1l-0.1-0.1L23,40.1l-0.1-0.1l-0.1-0.1l-0.1-0.1l-0.1-0.1l-0.1-0.1l-0.1-0.1l-0.1-0.1
		l-0.1-0.1l0,0L22.3,39l-0.1-0.1l0,0l-0.1-0.1l0,0l-0.1-0.1l0,0L22,38.4l0,0l-0.1-0.2l0,0l-0.1-0.1l0,0l-0.1-0.2l0-0.1l-0.1-0.1
		l-0.1-0.2l0,0l-0.1-0.2l0,0l0,0L21.4,37l0-0.1l-0.1-0.2l0-0.1l-0.1-0.2l0-0.1l-0.1-0.2l0-0.1l-0.1-0.2l0-0.1L21,35.5l0,0l0,0
		l-0.1-0.3l0,0l-0.1-0.3l0,0l0,0v0c0-0.2-0.1-0.4-0.1-0.6l0-0.1l0-0.2l0-0.1c0-0.1,0-0.2,0-0.3l0,0c0-0.1,0-0.2,0-0.3v0l0-0.3l0,0
		l0-0.1l0-0.3v0v0v0v0v0v0l0,0v0v0v0v0l0,0v0v0l0,0v0v0l0,0v0l0,0v0v0l0,0v0l0,0v0l0,0v0l0,0l0,0l0,0l0,0l0,0l0,0v0l0,0l0,0l0,0l0,0
		v0l0,0l0,0l0,0l0,0l0-0.2v0c0.1-1,0.2-1.9,0.5-2.9l0,0l0.1-0.2l0,0l0.1-0.2l0-0.1l0.1-0.2l0,0c0.1-0.2,0.1-0.3,0.2-0.5l0,0l0.1-0.2
		l0,0l0.1-0.2l0.1-0.2l0-0.1c0.1-0.1,0.1-0.3,0.2-0.4h0l0.1-0.2l0,0l0.1-0.2l0,0l0.1-0.2l0.1-0.1l0.1-0.1l0.1-0.1l0,0l0.1-0.2l0,0
		l0.1-0.2l0,0L23,25l0,0l0,0l0.1-0.1l0.1-0.1l0.1-0.1l0.1-0.1l0.1-0.1l0.1-0.1l0.1-0.1l0-0.1l0,0l0.1-0.2l0,0l0,0l0.1-0.2l0,0
		l0.1-0.1l0,0l0.1-0.1l0,0l0.1-0.1l0,0l0.1-0.1l0,0l0.2-0.1l0.2-0.2l0,0l0.2-0.1l0,0l0.1-0.1l0,0c0.1-0.1,0.2-0.2,0.3-0.3l0.1,0
		c2.2-1.7,5-2.8,8.1-2.8c3.2,0,6.2,1.2,8.4,3.1c-0.7,0.8-1.5,1.6-2.2,2.5c-1.7-1.4-3.9-2.3-6.3-2.3l-0.2,0l-0.1,0l-0.2,0l-0.1,0
		c-0.1,0-0.3,0-0.4,0l-0.1,0l-0.2,0l-0.1,0l-0.1,0l-0.1,0l0,0l-0.2,0l0,0l-0.1,0l-0.2,0l-0.1,0l-0.2,0l-0.1,0l-0.2,0l0,0l0,0l-0.2,0
		l0,0l-0.1,0l-0.1,0l-0.1,0l-0.2,0.1l0,0l0,0l-0.2,0.1l0,0l-0.1,0l-0.1,0l-0.1,0L30,23.5l0,0l-0.2,0.1l0,0l-0.1,0l-0.1,0.1l-0.1,0
		l-0.1,0.1l-0.1,0l-0.1,0.1l-0.1,0l0,0l0,0L28.9,24l0,0l-0.2,0.1l-0.1,0l-0.1,0l-0.1,0.1l-0.2,0.1l0,0l-0.1,0.1l-0.1,0.1L28,24.6
		L28,24.6l-0.1,0.1l0,0l-0.1,0.1l0,0l-0.1,0.1l0,0L27.5,25l-0.1,0.1l-0.1,0.1l-0.2,0.1l0,0L27,25.4l0,0l-0.1,0.1l-0.1,0.1l-0.1,0.1
		l-0.1,0.1l0,0l0,0l-0.1,0.1l0,0l0,0l-0.1,0.1l0,0l-0.1,0.1l-0.1,0.1l0,0L26,26.5l0,0l-0.1,0.1l0,0l-0.1,0.1l-0.1,0.1l-0.1,0.1l0,0
		L25.6,27l0,0l-0.1,0.2l0,0l-0.1,0.1l-0.1,0.1l0,0.1l-0.1,0.2l0,0l0,0l-0.1,0.2l-0.1,0.1l0,0.1l0,0.1l0,0.1l0,0.1l0,0l-0.1,0.2
		l0,0.1l-0.1,0.1l0,0.1l0,0.1l0,0.1C24.3,29.8,24,30.8,24,31.7"/>
	<path id="path18" class="st0" d="M33.8,6.3c6.7,0,12.8,2.5,17.4,6.6c-0.8,0.8-1.5,1.5-2.3,2.4c-4-3.5-9.3-5.7-15.1-5.7
		C25.4,9.6,18,14.1,14,20.8L13.9,21l-0.1,0.2l0,0l-0.2,0.3l-0.1,0.2l-0.2,0.3l0,0l-0.1,0.2l-0.1,0.2l-0.1,0.2L13,22.8l0,0L12.9,23
		l0,0l-0.1,0.3l-0.1,0.3l-0.1,0.1L12.5,24l-0.1,0.1l-0.1,0.3l0,0.1L12.1,25l0,0.1c0,0.1-0.1,0.3-0.1,0.4l0,0.1l0,0
		c0,0.1-0.1,0.3-0.1,0.4l0,0l0,0l0,0c0,0.2-0.1,0.3-0.1,0.5l0,0c0,0.1-0.1,0.3-0.1,0.5l0,0.1c0,0.2-0.1,0.3-0.1,0.5l0,0
		c-0.1,0.5-0.2,1-0.3,1.5h0c-0.2,1.2-0.3,2.3-0.3,3.6c0,1.4,0.1,2.8,0.4,4.2l-2.9,2.1c-0.5-2-0.8-4.2-0.8-6.4c0-3.3,0.6-6.4,1.7-9.3
		l0,0c0.1-0.2,0.1-0.3,0.2-0.5l0,0l0,0c0.1-0.2,0.1-0.3,0.2-0.5l0,0c0.1-0.2,0.1-0.3,0.2-0.5l0.1-0.1c0.1-0.1,0.1-0.3,0.2-0.4l0-0.1
		l0.1-0.2h0C14.6,12.2,23.5,6.3,33.8,6.3"/>
	<path class="st0" d="M33.8,26c-3.6,0-6.6,2.9-6.6,6.6c0,3.6,2.9,6.6,6.6,6.6c3.6,0,6.6-2.9,6.6-6.6C40.3,28.9,37.4,26,33.8,26z
		 M33.8,35.8c-1.8,0-3.3-1.5-3.3-3.3c0-1.8,1.5-3.3,3.3-3.3c1.8,0,3.3,1.5,3.3,3.3C37.1,34.4,35.6,35.8,33.8,35.8z"/>
</g>
</svg>
