<?xml version="1.0" encoding="iso-8859-1"?>
<!-- Generator: Adobe Illustrator 19.0.0, SVG Export Plug-In . SVG Version: 6.00 Build 0)  -->
<svg version="1.1" id="Capa_1" xmlns="http://www.w3.org/2000/svg" xmlns:xlink="http://www.w3.org/1999/xlink" x="0px" y="0px"
	 viewBox="0 0 512 512" style="enable-background:new 0 0 512 512;" xml:space="preserve">
<path style="fill:#7CC3AC;" d="M256,0C114.615,0,0,114.615,0,256s114.615,256,256,256s256-114.615,256-256S397.385,0,256,0z
	 M256,416c-88.366,0-160-71.635-160-160c0-88.366,71.634-160,160-160c88.365,0,160,71.634,160,160C416,344.365,344.365,416,256,416z
	"/>
<path style="fill:#61AE9F;" d="M434.349,256c0-98.5-79.85-178.349-178.349-178.349S77.651,157.5,77.651,256
	S157.5,434.349,256,434.349S434.349,354.5,434.349,256z M96,256c0-88.366,71.635-160,160-160s160,71.634,160,160
	c0,88.365-71.635,160-160,160S96,344.365,96,256z M512,256c0,141.385-114.615,256-256,256c-3.687,0-7.351-0.096-11-0.25
	C381.28,505.986,490,393.698,490,256S381.28,6.014,245,0.25C248.649,0.096,252.313,0,256,0C397.385,0,512,114.615,512,256z"/>
<g>
	<path style="fill:#FF733D;" d="M319.061,215.652l-104.91,101.909c-2.929,2.929-6.768,4.394-10.606,4.394s-7.678-1.464-10.606-4.394
		c-5.858-5.858-5.858-15.355,0-21.213l104.91-101.909c5.857-5.858,15.355-5.858,21.213,0
		C324.919,200.297,324.919,209.794,319.061,215.652z M216,226c11.028,0,20-8.972,20-20s-8.972-20-20-20s-20,8.972-20,20
		S204.972,226,216,226z M296,286c-11.028,0-20,8.972-20,20s8.972,20,20,20s20-8.972,20-20S307.028,286,296,286z"/>
	<path style="fill:#FF733D;" d="M512,256H400.908c-2.7,0-4.898-2.146-4.99-4.844c-1.161-34.141-14.547-65.181-35.917-88.88
		c-24.618-27.299-59.831-44.858-99.161-46.194c-2.697-0.092-4.84-2.291-4.84-4.989V0C397.385,0,512,114.615,512,256z"/>
</g>
<path style="fill:#FF904E;" d="M490,256h-74c0-88.366-71.635-160-160-160V0.951C387.083,12.111,490,122.028,490,256z M511.937,251
	c0.032,1.664,0.063,3.328,0.063,5l0,0C512,254.328,511.969,252.664,511.937,251L511.937,251z"/>
<g>
</g>
<g>
</g>
<g>
</g>
<g>
</g>
<g>
</g>
<g>
</g>
<g>
</g>
<g>
</g>
<g>
</g>
<g>
</g>
<g>
</g>
<g>
</g>
<g>
</g>
<g>
</g>
<g>
</g>
</svg>
