<?xml version="1.0" encoding="iso-8859-1"?>
<!-- Generator: Adobe Illustrator 19.0.0, SVG Export Plug-In . SVG Version: 6.00 Build 0)  -->
<svg version="1.1" id="Layer_1" xmlns="http://www.w3.org/2000/svg" xmlns:xlink="http://www.w3.org/1999/xlink" x="0px" y="0px"
	 viewBox="0 0 512.001 512.001" style="enable-background:new 0 0 512.001 512.001;" xml:space="preserve">
<path style="fill:#EDEDED;" d="M407.376,266.652c0,89.485-72.542,162.027-162.027,162.027S83.323,356.137,83.323,266.652
	s72.542-162.027,162.027-162.027S407.376,177.167,407.376,266.652z"/>
<path style="fill:#C6C6C6;" d="M245.349,21.304C109.847,21.304,0.001,131.15,0.001,266.652s109.846,245.349,245.349,245.349
	s245.349-109.846,245.349-245.349S380.852,21.304,245.349,21.304z M245.349,395.167c-70.978,0-128.516-57.538-128.516-128.516
	s57.538-128.515,128.516-128.515s128.516,57.538,128.516,128.516S316.326,395.167,245.349,395.167z"/>
<path style="fill:#969696;" d="M245.349,79.719c-103.24,0-186.932,83.692-186.932,186.932s83.692,186.932,186.932,186.932
	s186.932-83.692,186.932-186.932S348.589,79.719,245.349,79.719z M245.349,395.167c-70.978,0-128.516-57.538-128.516-128.516
	s57.538-128.515,128.516-128.515s128.516,57.538,128.516,128.516S316.326,395.167,245.349,395.167z"/>
<path style="fill:#FF6029;" d="M269.913,0.105c128.026,12.068,229.916,113.957,241.983,241.983
	c1.292,13.7-9.515,25.534-23.275,25.534H348.878c-5.949,0-10.95-4.471-11.603-10.383c-0.048-0.434-0.099-0.867-0.153-1.3
	c-5.272-42.279-38.781-75.788-81.059-81.06c-0.432-0.054-0.866-0.105-1.301-0.153c-5.912-0.654-10.383-5.655-10.383-11.603V23.38
	C244.378,9.62,256.214-1.187,269.913,0.105z"/>
<path style="fill:#B7441C;" d="M432.269,267.622h-83.391c-5.948,0-10.95-4.471-11.603-10.383c-0.048-0.434-0.099-0.867-0.153-1.3
	c-5.272-42.279-38.781-75.788-81.059-81.06c-0.432-0.054-0.866-0.105-1.301-0.153c-5.912-0.654-10.383-5.655-10.383-11.603V79.732
	c0.324-0.001,0.646-0.012,0.97-0.012c103.24,0,186.932,83.692,186.932,186.932C432.281,266.976,432.27,267.298,432.269,267.622z"/>
<g>
</g>
<g>
</g>
<g>
</g>
<g>
</g>
<g>
</g>
<g>
</g>
<g>
</g>
<g>
</g>
<g>
</g>
<g>
</g>
<g>
</g>
<g>
</g>
<g>
</g>
<g>
</g>
<g>
</g>
</svg>
