<?xml version="1.0" encoding="iso-8859-1"?>
<!-- Generator: Adobe Illustrator 19.0.0, SVG Export Plug-In . SVG Version: 6.00 Build 0)  -->
<svg version="1.1" id="Layer_1" xmlns="http://www.w3.org/2000/svg" xmlns:xlink="http://www.w3.org/1999/xlink" x="0px" y="0px"
	 viewBox="0 0 512 512" style="enable-background:new 0 0 512 512;" xml:space="preserve">
<path style="fill:#BFBFBF;" d="M278.261,489.739h-44.522V367.304h44.522V489.739z"/>
<path style="fill:#6D6D6D;" d="M278.261,489.739H256V367.304h22.261V489.739z"/>
<path style="fill:#FFD34E;" d="M333.913,478.609V512H178.087v-33.391c0-6.147,4.983-11.13,11.13-11.13h133.565
	C328.93,467.478,333.913,472.461,333.913,478.609z M345.043,0H166.957c-6.147,0-11.13,4.983-11.13,11.13v44.522h200.348V11.13
	C356.174,4.983,351.191,0,345.043,0z M300.522,389.565c6.147,0,11.13-4.983,11.13-11.13v-44.522H200.348v44.522
	c0,6.147,4.983,11.13,11.13,11.13H300.522z"/>
<path style="fill:#FFB933;" d="M375.652,503.652c0,4.61-3.738,8.348-8.348,8.348h-33.391h-33.391H144.696
	c-4.61,0-8.348-3.738-8.348-8.348s3.738-8.348,8.348-8.348h155.826v-16.696c0-6.147-4.983-11.13-11.13-11.13h33.391
	c6.147,0,11.13,4.983,11.13,11.13v16.696h33.391C371.915,495.304,375.652,499.042,375.652,503.652z M322.783,11.13v44.522h33.391
	V11.13c0-6.147-4.983-11.13-11.13-11.13h-33.391C317.799,0,322.783,4.983,322.783,11.13z M311.652,378.435v-44.522h-33.391v44.522
	c0,6.147-4.983,11.13-11.13,11.13h33.391C306.669,389.565,311.652,384.582,311.652,378.435z"/>
<path style="fill:#6D6D6D;" d="M500.87,300.522H11.13c-6.147,0-11.13-4.983-11.13-11.13V44.522c0-6.147,4.983-11.13,11.13-11.13
	H500.87c6.147,0,11.13,4.983,11.13,11.13v244.87C512,295.539,507.017,300.522,500.87,300.522z"/>
<path style="fill:#444444;" d="M512,44.522v300.522c0,6.147-4.983,11.13-11.13,11.13h-33.391V33.391h33.391
	C507.017,33.391,512,38.374,512,44.522z"/>
<path style="fill:#999999;" d="M512,289.391v55.652c0,6.147-4.983,11.13-11.13,11.13H11.13c-6.147,0-11.13-4.983-11.13-11.13
	v-55.652H512z"/>
<path style="fill:#BFBFBF;" d="M467.478,356.174H11.13c-6.147,0-11.13-4.983-11.13-11.13v-55.652h467.478V356.174z"/>
<path style="fill:#444444;" d="M275.478,322.783c0,4.61-3.738,8.348-8.348,8.348H244.87c-4.61,0-8.348-3.738-8.348-8.348
	s3.738-8.348,8.348-8.348h22.261C271.741,314.435,275.478,318.172,275.478,322.783z M322.783,314.435h-22.261
	c-4.61,0-8.348,3.738-8.348,8.348s3.738,8.348,8.348,8.348h22.261c4.61,0,8.348-3.738,8.348-8.348S327.393,314.435,322.783,314.435z
	 M211.478,314.435h-22.261c-4.61,0-8.348,3.738-8.348,8.348s3.738,8.348,8.348,8.348h22.261c4.61,0,8.348-3.738,8.348-8.348
	S216.088,314.435,211.478,314.435z"/>
<g>
	<path style="fill:#C1E296;" d="M512,158.609v16.696h-77.913c-3.162,0-6.053-1.786-7.466-4.615l-14.795-29.588l-14.795,29.588
		c-1.414,2.828-4.304,4.615-7.466,4.615h-261.97l-14.977,29.952c-2.372,4.744-7.14,7.691-12.444,7.691
		c-5.304,0-10.072-2.946-12.444-7.69l-14.977-29.953H0v-16.696h77.913c3.162,0,6.053,1.786,7.466,4.615l14.795,29.589l14.795-29.589
		c1.415-2.828,4.304-4.615,7.466-4.615h261.97l14.976-29.952c2.372-4.744,7.14-7.691,12.444-7.691c5.304,0,10.072,2.946,12.444,7.69
		l14.976,29.952H512V158.609z"/>
	<path style="fill:#C1E296;" d="M333.913,166.957c0,43.03-34.883,77.913-77.913,77.913s-77.913-34.883-77.913-77.913
		S212.97,89.043,256,89.043S333.913,123.926,333.913,166.957z"/>
</g>
<path style="fill:#687B40;" d="M291.292,137.298l-33.391,66.783c-1.33,2.662-3.978,4.413-6.948,4.598
	c-0.174,0.011-0.347,0.017-0.52,0.017c-2.779,0-5.39-1.387-6.944-3.718l-22.261-33.391c-2.558-3.836-1.522-9.019,2.315-11.576
	s9.02-1.522,11.576,2.315l14.281,21.423l26.959-53.916c2.061-4.124,7.077-5.797,11.199-3.733
	C291.683,128.16,293.355,133.175,291.292,137.298z"/>
<g>
</g>
<g>
</g>
<g>
</g>
<g>
</g>
<g>
</g>
<g>
</g>
<g>
</g>
<g>
</g>
<g>
</g>
<g>
</g>
<g>
</g>
<g>
</g>
<g>
</g>
<g>
</g>
<g>
</g>
</svg>
