<svg
  height="512pt"
  viewBox="0 0 512 512"
  width="512pt"
  xmlns="http://www.w3.org/2000/svg"
>
  <linearGradient id="my-cool-gradient" x2="1" y2="1">
    <stop offset="0%" stop-color="#F53844" />
    <!-- <stop offset="50%" stop-color="#F71735" /> -->
    <stop offset="100%" stop-color="#42378F" />
  </linearGradient>
  <linearGradient id="my-gradient" x2="1" y2="1">
    <stop offset="0%" stop-color="#DB3445" />
    <!-- <stop offset="50%" stop-color="#3772B3" /> -->
    <stop offset="100%" stop-color="#F71735" />
  </linearGradient>
  <path
    style="fill: url(#my-cool-gradient) #447799;"
    d="m512 441v-381h-143.742188c-4.828124-7.226562-10.425781-14.085938-16.796874-20.460938-25.5-25.496093-59.402344-39.539062-95.460938-39.539062s-69.960938 14.042969-95.460938 39.539062c-6.371093 6.375-11.964843 13.238282-16.796874 20.460938h-143.742188v381h167.832031v11c0 16.542969-13.457031 30-30 30h-77.832031v30h392v-30h-77.832031c-16.542969 0-30-13.457031-30-30v-11zm-330.246094-380.246094c19.832032-19.832031 46.199219-30.753906 74.246094-30.753906s54.414062 10.921875 74.246094 30.753906c40.9375 40.9375 40.9375 107.550782 0 148.492188l-74.246094 74.246094-74.246094-74.246094c-40.941406-40.9375-40.941406-107.554688 0-148.492188zm-53.019531 29.246094c-16.710937 47.496094-6.109375 102.542969 31.804687 140.460938l95.460938 95.457031 95.460938-95.457031c37.914062-37.917969 48.515624-92.964844 31.804687-140.460938h98.734375v261h-452v-261zm-98.734375 291h452v30h-452zm292.238281 101h-132.476562c5.121093-8.832031 8.070312-19.074219 8.070312-30v-11h116.332031v11c.003907 10.925781 2.953126 21.167969 8.074219 30zm0 0">
  </path>
  <path
    style="fill: url(#my-gradient) #447799;"
    d="m256 210c41.355469 0 75-33.644531 75-75s-33.644531-75-75-75-75 33.644531-75 75 33.644531 75 75 75zm0-120c24.8125 0 45 20.1875 45 45s-20.1875 45-45 45-45-20.1875-45-45 20.1875-45 45-45zm0 0">
  </path>
</svg>