<?xml version="1.0" encoding="iso-8859-1"?>
<!-- Generator: Adobe Illustrator 19.0.0, SVG Export Plug-In . SVG Version: 6.00 Build 0)  -->
<svg version="1.1" id="Capa_1" xmlns="http://www.w3.org/2000/svg" xmlns:xlink="http://www.w3.org/1999/xlink" x="0px" y="0px"
	 viewBox="0 0 512 512" style="enable-background:new 0 0 512 512;" xml:space="preserve">
<path style="fill:#EDEDED;" d="M0.835,95.119L62.517,2.234C63.443,0.839,65.007,0,66.682,0H376c5.523,0,10,4.477,10,10v492
	c0,5.523-4.477,10-10,10H10c-5.523,0-10-4.477-10-10V97.885C0,96.901,0.29,95.939,0.835,95.119z"/>
<path style="fill:#D8D8D8;" d="M386,10v492c0,5.523-4.477,10-10,10h-22.998c5.523,0,10-4.477,10-10V10c0-5.523-4.477-10-10-10H376
	C381.523,0,386,4.477,386,10z"/>
<path style="fill:#C1C1C1;" d="M0.835,95.119l0.489-0.736l61.193-92.15C62.909,1.644,63.42,1.16,64,0.791v85.586
	c0,5.523-4.477,10-10,10H0.238C0.378,95.934,0.575,95.51,0.835,95.119z"/>
<path style="fill:#A0A0A0;" d="M42.5,150c0-4.143,3.358-7.5,7.5-7.5h50c4.142,0,7.5,3.357,7.5,7.5s-3.358,7.5-7.5,7.5H50
	C45.858,157.5,42.5,154.143,42.5,150z M50,182.503h30c4.142,0,7.5-3.357,7.5-7.5s-3.358-7.5-7.5-7.5H50c-4.142,0-7.5,3.357-7.5,7.5
	S45.858,182.503,50,182.503z M100,285.998H50c-4.142,0-7.5,3.357-7.5,7.5s3.358,7.5,7.5,7.5h50c4.142,0,7.5-3.357,7.5-7.5
	S104.142,285.998,100,285.998z M50,326.002h20c4.142,0,7.5-3.357,7.5-7.5s-3.358-7.5-7.5-7.5H50c-4.142,0-7.5,3.357-7.5,7.5
	S45.858,326.002,50,326.002z M100,425.998H50c-4.142,0-7.5,3.357-7.5,7.5s3.358,7.5,7.5,7.5h50c4.142,0,7.5-3.357,7.5-7.5
	S104.142,425.998,100,425.998z M80,451.002H50c-4.142,0-7.5,3.357-7.5,7.5s3.358,7.5,7.5,7.5h30c4.142,0,7.5-3.357,7.5-7.5
	S84.142,451.002,80,451.002z"/>
<path style="fill:#F53737;" d="M462,470H192c-27.614,0-50-22.386-50-50l0,0c0-27.614,22.386-50,50-50h270c27.614,0,50,22.386,50,50
	l0,0C512,447.614,489.614,470,462,470z"/>
<path style="fill:#FE5E47;" d="M435,470H192c-27.614,0-50-22.386-50-50l0,0c0-27.614,22.386-50,50-50h243c27.614,0,50,22.386,50,50
	l0,0C485,447.614,462.614,470,435,470z"/>
<path style="fill:#AF2B2B;" d="M212,420c0,11.046-8.954,20-20,20s-20-8.954-20-20s8.954-20,20-20S212,408.954,212,420z M260,400
	c-11.046,0-20,8.954-20,20s8.954,20,20,20c11.046,0,20-8.954,20-20S271.046,400,260,400z M330,400c-11.046,0-20,8.954-20,20
	s8.954,20,20,20s20-8.954,20-20S341.046,400,330,400z"/>
<path style="fill:#61AE9F;" d="M462,330H192c-27.614,0-50-22.386-50-50l0,0c0-27.614,22.386-50,50-50h270c27.614,0,50,22.386,50,50
	l0,0C512,307.614,489.614,330,462,330z"/>
<path style="fill:#7CC3AC;" d="M435,330H192c-27.614,0-50-22.386-50-50l0,0c0-27.614,22.386-50,50-50h243c27.614,0,50,22.386,50,50
	l0,0C485,307.614,462.614,330,435,330z"/>
<path style="fill:#4A7273;" d="M212,280c0,11.046-8.954,20-20,20s-20-8.954-20-20s8.954-20,20-20S212,268.954,212,280z M260,260
	c-11.046,0-20,8.954-20,20s8.954,20,20,20c11.046,0,20-8.954,20-20S271.046,260,260,260z"/>
<path style="fill:#FF904E;" d="M462,190H192c-27.614,0-50-22.386-50-50l0,0c0-27.614,22.386-50,50-50h270c27.614,0,50,22.386,50,50
	l0,0C512,167.614,489.614,190,462,190z"/>
<path style="fill:#FFB05F;" d="M435,190H192c-27.614,0-50-22.386-50-50l0,0c0-27.614,22.386-50,50-50h243c27.614,0,50,22.386,50,50
	l0,0C485,167.614,462.614,190,435,190z"/>
<path style="fill:#FF733D;" d="M212,140c0,11.046-8.954,20-20,20s-20-8.954-20-20s8.954-20,20-20S212,128.954,212,140z M260,120
	c-11.046,0-20,8.954-20,20s8.954,20,20,20c11.046,0,20-8.954,20-20S271.046,120,260,120z M330,120c-11.046,0-20,8.954-20,20
	s8.954,20,20,20s20-8.954,20-20S341.046,120,330,120z M400,120c-11.046,0-20,8.954-20,20s8.954,20,20,20s20-8.954,20-20
	S411.046,120,400,120z"/>
<g>
</g>
<g>
</g>
<g>
</g>
<g>
</g>
<g>
</g>
<g>
</g>
<g>
</g>
<g>
</g>
<g>
</g>
<g>
</g>
<g>
</g>
<g>
</g>
<g>
</g>
<g>
</g>
<g>
</g>
</svg>
