<?xml version="1.0" encoding="iso-8859-1"?>
<!-- Generator: Adobe Illustrator 19.0.0, SVG Export Plug-In . SVG Version: 6.00 Build 0)  -->
<svg version="1.1" id="Capa_1" xmlns="http://www.w3.org/2000/svg" xmlns:xlink="http://www.w3.org/1999/xlink" x="0px" y="0px"
	 viewBox="0 0 512 512" style="enable-background:new 0 0 512 512;" xml:space="preserve">
<path style="fill:#757575;" d="M82,490H50V156c0-8.837,7.163-16,16-16l0,0c8.837,0,16,7.163,16,16V490z"/>
<path style="fill:#AFAFAF;" d="M122,512H10c-5.523,0-10-4.477-10-10l0,0c0-12.15,9.85-22,22-22h88c12.15,0,22,9.85,22,22l0,0
	C132,507.523,127.523,512,122,512z"/>
<path style="fill:#A0A0A0;" d="M132,502L132,502c0,5.523-4.477,10-10,10h-15.333v-16c0-8.836-7.164-16-16-16H110
	C122.15,480,132,489.85,132,502z"/>
<path style="fill:#F53737;" d="M506.992,110c3.945,0,6.337,4.356,4.218,7.684L446.1,220l65.11,102.316
	c2.118,3.329-0.273,7.684-4.218,7.684H236.1c-11.046,0-20-8.954-20-20v-90V110H506.992z"/>
<path style="fill:#DB3131;" d="M511.21,322.316c2.118,3.329-0.273,7.684-4.218,7.684h-20.994l-70-110l70-110h20.994
	c3.945,0,6.336,4.356,4.218,7.684L446.1,220L511.21,322.316z"/>
<path style="fill:#842020;" d="M300,255c0,3.417,0,16.583,0,20l0,0c0,30.376-24.624,55-55,55h-8.9c-11.046,0-20-8.954-20-20v-20v-70
	v-20H245C275.376,200,300,224.624,300,255L300,255z"/>
<path style="fill:#DB3131;" d="M300,55v55v110v55c0-30.376-24.624-55-55-55H105c-30.376,0-55,24.624-55,55v-55V110V55
	c0-30.376,24.624-55,55-55h140C275.376,0,300,24.624,300,55z"/>
<path style="fill:#FE5E47;" d="M274,191.829c0,15.76-12.921,28.262-28.681,28.172C245.213,220,245.106,220,245,220H105
	c-30.376,0-55,24.624-55,55v-55V110V55c0-30.376,24.624-55,55-55h140c10.646,0,20.579,3.034,29,8.271V191.829z"/>
<g>
</g>
<g>
</g>
<g>
</g>
<g>
</g>
<g>
</g>
<g>
</g>
<g>
</g>
<g>
</g>
<g>
</g>
<g>
</g>
<g>
</g>
<g>
</g>
<g>
</g>
<g>
</g>
<g>
</g>
</svg>
