<?xml version="1.0" encoding="iso-8859-1"?>
<!-- Generator: Adobe Illustrator 19.0.0, SVG Export Plug-In . SVG Version: 6.00 Build 0)  -->
<svg version="1.1" id="Layer_1" xmlns="http://www.w3.org/2000/svg" xmlns:xlink="http://www.w3.org/1999/xlink" x="0px" y="0px"
	 viewBox="0 0 275.549 275.549" style="enable-background:new 0 0 275.549 275.549;" xml:space="preserve">
<g>
	<g>
		<g>
			<g id="XMLID_30_">
				<g>
					<path style="fill:#FEDE94;" d="M238.601,141.013c0.064,1.602,0.128,3.172,0.128,4.646c0,60.812-49.854,110.281-111.114,110.281
						c-21.723,0-42.421-6.12-60.459-17.846c8.811-8.747,17.654-17.494,26.433-26.273c10.541,5.383,22.172,8.202,34.026,8.202
						c41.299,0,74.909-33.353,74.909-74.364c0-1.538-0.064-3.076-0.16-4.646H238.601z"/>
					<path style="fill:#AAE1E9;" d="M143.314,36.532v36.461c-5.158-1.089-10.413-1.666-15.7-1.666
						c-41.299,0-74.909,33.353-74.909,74.332c0,12.752,3.3,25.151,9.644,36.237l-26.273,26.08
						C23.388,189.681,16.5,167.894,16.5,145.658c0-60.812,49.854-110.249,111.114-110.249
						C132.773,35.41,138.028,35.795,143.314,36.532z"/>
					<path style="fill:#F47C6D;" d="M256.127,94.46h-46.81c-4.71-7.882-10.797-15.027-17.878-20.986V23.651
						C221.62,37.781,244.913,63.253,256.127,94.46z"/>
					<path style="fill:#2D213F;" d="M275.286,100.579c0.641,2.467,0.096,5.062-1.474,7.081c-1.538,2.019-3.973,3.204-6.536,3.204
						h-62.798c-3.108,0-5.927-1.73-7.337-4.454c-4.518-8.747-11.086-16.501-18.968-22.492c-2.051-1.57-3.268-3.973-3.268-6.504
						V11.38c0-2.659,1.314-5.158,3.524-6.696s4.998-1.89,7.529-0.993C230.046,19.454,263.432,55.659,275.286,100.579z
						 M209.316,94.46h46.81c-11.214-31.207-34.507-56.678-64.688-70.808v49.822C198.519,79.433,204.606,86.578,209.316,94.46z"/>
					<path style="fill:#2D213F;" d="M254.396,131.914c0.577,5.19,0.833,9.548,0.833,13.745c0,69.847-57.255,126.686-127.615,126.686
						c-28.548,0-55.621-9.26-78.241-26.721c-1.858-1.442-3.012-3.62-3.14-5.959c-0.16-2.339,0.705-4.646,2.371-6.312l1.57-1.57
						C62.253,219.8,74.3,207.817,86.315,195.802c2.723-2.723,6.985-3.204,10.285-1.153c9.356,5.895,20.089,8.971,31.015,8.971
						c32.2,0,58.409-25.984,58.409-57.96c0-3.653-0.384-7.433-1.153-11.246c-0.513-2.403,0.128-4.902,1.698-6.792
						c1.57-1.89,3.909-2.98,6.376-2.98h53.25C250.391,124.641,253.916,127.781,254.396,131.914z M238.729,145.659
						c0-1.474-0.064-3.044-0.128-4.646h-36.237c0.096,1.57,0.16,3.108,0.16,4.646c0,41.011-33.61,74.364-74.909,74.364
						c-11.855,0-23.485-2.82-34.026-8.202c-8.779,8.779-17.622,17.526-26.433,26.273c18.038,11.727,38.736,17.846,60.459,17.846
						C188.875,255.94,238.729,206.471,238.729,145.659z"/>
					<path style="fill:#2D213F;" d="M159.815,29.675v54.372c0,2.691-1.346,5.222-3.588,6.76c-2.243,1.506-5.126,1.858-7.658,0.865
						c-6.792-2.627-13.841-3.973-20.954-3.973c-32.2,0-58.409,26.016-58.409,57.96c0,11.695,3.588,23.005,10.413,32.745
						c2.275,3.268,1.858,7.658-0.961,10.477l-37.647,37.358c-1.538,1.538-3.653,2.403-5.831,2.403c-0.16,0-0.288,0-0.417,0
						c-2.339-0.128-4.518-1.218-5.991-3.012C10.221,203.075,0,174.687,0,145.659C0,75.844,57.255,19.006,127.615,19.006
						c8.426,0,17.045,0.897,25.6,2.627C157.059,22.434,159.815,25.766,159.815,29.675z M143.314,72.993V36.532
						c-5.287-0.737-10.541-1.121-15.7-1.121C66.354,35.411,16.5,84.848,16.5,145.66c0,22.236,6.889,44.023,19.576,62.318
						l26.273-26.08c-6.344-11.086-9.644-23.485-9.644-36.237c0-40.979,33.61-74.332,74.909-74.332
						C132.901,71.327,138.156,71.904,143.314,72.993z"/>
				</g>
			</g>
		</g>
	</g>
</g>
<g>
</g>
<g>
</g>
<g>
</g>
<g>
</g>
<g>
</g>
<g>
</g>
<g>
</g>
<g>
</g>
<g>
</g>
<g>
</g>
<g>
</g>
<g>
</g>
<g>
</g>
<g>
</g>
<g>
</g>
</svg>
