<?xml version="1.0" encoding="windows-1252"?>
<!-- Generator: Adobe Illustrator 19.0.0, SVG Export Plug-In . SVG Version: 6.00 Build 0)  -->
<svg version="1.1" id="Layer_1" xmlns="http://www.w3.org/2000/svg" xmlns:xlink="http://www.w3.org/1999/xlink" x="0px" y="0px" viewBox="0 0 313.982 313.982" style="enable-background:new 0 0 313.982 313.982;" xml:space="preserve">
<g>
	<g>
		<g id="XMLID_25_">
			<g>
				<path style="fill:#F47C6D;" d="M156.542,154.825c11.502,0,20.89,9.227,20.89,20.57c0,11.342-9.388,20.57-20.89,20.57      c-11.534,0-20.89-9.227-20.89-20.57C135.652,164.052,145.007,154.825,156.542,154.825z"/>
				<path style="fill:#AAE1E9;" d="M237.763,157.452l-25.824,78.305l-27.843-35.436c6.152-6.568,9.932-15.315,9.932-24.927      c0-0.673-0.064-1.346-0.096-2.019L237.763,157.452z"/>
				<path style="fill:#AAE1E9;" d="M170.447,209.645l27.618,35.18h-82.599l27.298-35.116c4.261,1.666,8.907,2.595,13.777,2.595      C161.444,212.304,166.154,211.343,170.447,209.645z"/>
				<path style="fill:#AAE1E9;" d="M129.052,200.417l-27.138,34.923l-25.568-77.504l42.773,15.7      c-0.032,0.609-0.096,1.25-0.096,1.858C119.023,185.07,122.868,193.849,129.052,200.417z"/>
				<path style="fill:#AAE1E9;" d="M148.692,93.372v45.945c-10.797,2.275-19.929,9.131-25.087,18.423l-42.869-15.732L148.692,93.372      z"/>
				<path style="fill:#AAE1E9;" d="M232.989,141.784l-43.606,15.828c-5.03-8.971-13.745-15.635-24.094-18.07v-46.17L232.989,141.784      z"/>
				<polygon style="fill:#FEDE94;" points="148.692,33.81 148.692,73.187 62.056,135.152 25.691,121.792     "/>
				<polygon style="fill:#FEDE94;" points="56.481,150.531 89.675,251.104 68.112,278.883 21.494,137.683     "/>
				<polygon style="fill:#FEDE94;" points="210.881,261.165 231.996,288.046 81.889,288.046 102.779,261.165     "/>
				<polygon style="fill:#FEDE94;" points="292.519,137.619 245.837,278.979 224.21,251.425 257.595,150.275     "/>
				<polygon style="fill:#FEDE94;" points="288.226,121.759 251.732,134.992 165.289,73.187 165.289,33.81     "/>
				<path style="fill:#2D213F;" d="M310.557,117.53c2.916,2.083,4.133,5.767,3.012,9.131l-56.775,172.054      c-1.121,3.364-4.293,5.671-7.914,5.671H65.1c-3.588,0-6.792-2.307-7.914-5.671L0.412,126.662      c-1.121-3.364,0.096-7.049,3.012-9.131L152.12,11.158c2.916-2.083,6.857-2.083,9.74,0L310.557,117.53z M245.837,278.979      l46.682-141.36l-34.923,12.656l-33.386,101.15L245.837,278.979z M251.732,134.992l36.493-13.232L165.289,33.81v39.377      L251.732,134.992z M211.939,235.757l25.824-78.305l-43.831,15.924c0.032,0.673,0.096,1.346,0.096,2.019      c0,9.612-3.781,18.359-9.932,24.927L211.939,235.757z M189.383,157.612l43.606-15.828l-67.7-48.412v46.169      C175.637,141.977,184.352,148.641,189.383,157.612z M231.996,288.046l-21.114-26.881H102.779l-20.89,26.881H231.996z       M198.065,244.825l-27.618-35.18c-4.293,1.698-9.003,2.659-13.905,2.659c-4.87,0-9.516-0.929-13.777-2.595l-27.298,35.116      L198.065,244.825L198.065,244.825z M177.432,175.394c0-11.342-9.388-20.57-20.89-20.57c-11.534,0-20.89,9.227-20.89,20.57      c0,11.342,9.356,20.57,20.89,20.57C168.044,195.964,177.432,186.736,177.432,175.394z M148.692,139.317V93.372l-67.957,48.636      l42.869,15.732C128.763,148.449,137.895,141.592,148.692,139.317z M148.692,73.187V33.81L25.691,121.792l36.365,13.361      L148.692,73.187z M101.914,235.341l27.138-34.923c-6.184-6.568-10.028-15.347-10.028-25.023c0-0.609,0.064-1.25,0.096-1.858      l-42.773-15.7L101.914,235.341z M89.675,251.104L56.481,150.531l-34.988-12.848l46.618,141.2L89.675,251.104z"/>
			</g>
		</g>
	</g>
</g>
<g>
</g>
<g>
</g>
<g>
</g>
<g>
</g>
<g>
</g>
<g>
</g>
<g>
</g>
<g>
</g>
<g>
</g>
<g>
</g>
<g>
</g>
<g>
</g>
<g>
</g>
<g>
</g>
<g>
</g>
</svg>