<?xml version="1.0" encoding="iso-8859-1"?>
<!-- Generator: Adobe Illustrator 19.0.0, SVG Export Plug-In . SVG Version: 6.00 Build 0)  -->
<svg version="1.1" id="Layer_1" xmlns="http://www.w3.org/2000/svg" xmlns:xlink="http://www.w3.org/1999/xlink" x="0px" y="0px"
	 viewBox="0 0 275.543 275.543" style="enable-background:new 0 0 275.543 275.543;" xml:space="preserve">
<g>
	<g>
		<g>
			<g id="XMLID_24_">
				<g>
					<polygon style="fill:#FEDE94;" points="137.766,28.067 167.371,93.364 108.161,93.364 					"/>
					<polygon style="fill:#AAE1E9;" points="183.295,133.318 204.73,175.739 70.803,175.739 92.238,133.318 					"/>
					<polygon style="fill:#F47C6D;" points="221.294,213.706 241.832,259.01 33.701,259.01 54.238,213.706 					"/>
					<path style="fill:#2D213F;" d="M261.985,263.848c1.153,2.563,0.961,5.511-0.545,7.882s-4.101,3.813-6.889,3.813H20.981
						c-2.787,0-5.383-1.442-6.889-3.813c-1.474-2.371-1.698-5.319-0.545-7.882l28.035-61.837c1.314-2.948,4.229-4.806,7.401-4.806
						h177.565c3.172,0,6.088,1.858,7.401,4.806L261.985,263.848z M241.832,259.01l-20.538-45.304H54.238L33.701,259.01H241.832z"/>
					<path style="fill:#2D213F;" d="M225.363,180.224c1.282,2.563,1.185,5.607-0.32,8.074c-1.474,2.435-4.101,3.941-6.953,3.941
						H57.442c-2.852,0-5.479-1.506-6.953-3.941c-1.506-2.467-1.602-5.511-0.32-8.074l29.797-58.921
						c1.378-2.755,4.197-4.486,7.273-4.486h101.054c3.076,0,5.895,1.73,7.273,4.486L225.363,180.224z M204.73,175.739
						l-21.435-42.421H92.238l-21.435,42.421H204.73z"/>
					<path style="fill:#2D213F;" d="M187.524,98.202c1.153,2.563,0.929,5.511-0.577,7.882c-1.474,2.371-4.069,3.813-6.857,3.813
						H95.442c-2.755,0-5.351-1.442-6.857-3.813c-1.506-2.371-1.73-5.319-0.577-7.882l42.325-93.396
						C131.679,1.858,134.562,0,137.766,0s6.088,1.858,7.433,4.806L187.524,98.202z M167.371,93.364l-29.605-65.297l-29.605,65.297
						H167.371z"/>
				</g>
			</g>
		</g>
	</g>
</g>
<g>
</g>
<g>
</g>
<g>
</g>
<g>
</g>
<g>
</g>
<g>
</g>
<g>
</g>
<g>
</g>
<g>
</g>
<g>
</g>
<g>
</g>
<g>
</g>
<g>
</g>
<g>
</g>
<g>
</g>
</svg>
