<?xml version="1.0" encoding="iso-8859-1"?>
<!-- Generator: Adobe Illustrator 19.0.0, SVG Export Plug-In . SVG Version: 6.00 Build 0)  -->
<svg version="1.1" id="Layer_1" xmlns="http://www.w3.org/2000/svg" xmlns:xlink="http://www.w3.org/1999/xlink" x="0px" y="0px"
	 viewBox="0 0 294.767 294.767" style="enable-background:new 0 0 294.767 294.767;" xml:space="preserve">
<g>
	<g>
		<g id="XMLID_20_">
			<g>
				<path style="fill:#F47C6D;" d="M277.914,135.337H159.623V16.758C223.222,21.019,274.165,71.963,277.914,135.337z"/>
				<path style="fill:#505967;" d="M234.275,151.838c0.929,5.735,1.474,11.63,1.474,17.622c0,59.979-49.149,108.807-109.576,108.807
					c-60.395,0-109.544-48.829-109.544-108.807S65.778,60.652,126.173,60.652c5.735,0,11.342,0.513,16.853,1.378v81.573
					c0,4.55,3.717,8.234,8.298,8.234h82.951V151.838z"/>
				<path style="fill:#2D213F;" d="M294.767,142.706v0.769c-0.192,4.421-3.845,8.362-8.33,8.362h-35.404
					c0.865,5.767,1.346,11.63,1.346,17.622c0,69.078-56.614,125.308-126.205,125.308C56.614,294.768,0,238.538,0,169.46
					S56.614,44.184,126.173,44.184c5.735,0,11.342,0.417,16.853,1.153V8.235c0-2.179,0.865-4.293,2.435-5.831
					c1.538-1.538,3.652-2.403,5.863-2.403C230.431,0.161,294.767,64.177,294.767,142.706z M159.623,135.337h118.291
					c-3.749-63.375-54.692-114.318-118.291-118.579V135.337z M235.749,169.46c0-5.991-0.545-11.887-1.474-17.622h-82.951
					c-4.582,0-8.298-3.685-8.298-8.234V62.03c-5.511-0.865-11.118-1.378-16.853-1.378c-60.395,0-109.544,48.829-109.544,108.807
					s49.149,108.807,109.544,108.807C186.6,278.266,235.749,229.438,235.749,169.46z"/>
			</g>
		</g>
	</g>
</g>
<g>
</g>
<g>
</g>
<g>
</g>
<g>
</g>
<g>
</g>
<g>
</g>
<g>
</g>
<g>
</g>
<g>
</g>
<g>
</g>
<g>
</g>
<g>
</g>
<g>
</g>
<g>
</g>
<g>
</g>
</svg>
