<?xml version="1.0" encoding="windows-1252"?>
<!-- Generator: Adobe Illustrator 19.0.0, SVG Export Plug-In . SVG Version: 6.00 Build 0)  -->
<svg version="1.1" id="Layer_1" xmlns="http://www.w3.org/2000/svg" xmlns:xlink="http://www.w3.org/1999/xlink" x="0px" y="0px" viewBox="0 0 269.134 269.134" style="enable-background:new 0 0 269.134 269.134;" xml:space="preserve">
<g>
	<g>
		<g>
			<g>
				<path style="fill:#2D213F;" d="M263.278,145.076c-2.826-0.843-6.174-3.121-9.682-6.6c-2.925-2.896-5.732-6.565-8.58-11.214      c-15.786-25.763-32.613-38.118-50.078-36.654c-4.034,0.333-7.795,1.435-11.332,3.002c-1.375-2.823-2.784-5.591-4.248-8.292      c-18.913-34.895-39.281-51.667-60.488-49.812c-39.217,3.406-62.529,69.229-65.416,77.841      c-10.342,26.007-27.349,33.677-37.009,35.949V11.348c-0.003-4.498-3.681-8.145-8.221-8.145S0,6.85,0,11.348v246.438      c0,4.498,3.681,8.145,8.221,8.145h248.716c4.54,0,8.221-3.646,8.221-8.145c0-4.498-3.681-8.145-8.221-8.145H52.805      c33.869-20.896,90.359-61.148,110.598-107.673c1.913-4.752,6.84-14.396,13.489-22.393c0.593,1.551,1.192,3.069,1.772,4.671      c5.863,16.263,16.741,46.016,23.742,62.564c4.79,11.323,12.588,20.432,22.553,26.35c6.969,4.14,14.024,6.225,20.855,6.225      c4.114,0,8.145-0.756,12.031-2.272c4.226-1.65,6.299-6.379,4.636-10.564c-1.663-4.188-6.43-6.241-10.66-4.594      c-5.508,2.143-11.701,1.218-18.413-2.771c-6.837-4.059-12.464-10.688-15.84-18.67c-6.853-16.196-17.616-45.638-23.424-61.747      c-1.275-3.537-2.592-6.933-3.938-10.253c1.98-0.9,4.015-1.496,6.091-1.669c13.357-1.141,26.215,15.094,34.661,28.874      c3.544,5.78,7.145,10.451,11.009,14.277c5.504,5.453,11.079,9.048,16.581,10.682c4.351,1.298,8.933-1.15,10.237-5.46      C270.09,150.911,267.622,146.367,263.278,145.076z M148.216,135.724C123.309,192.973,32.54,243.009,20.131,249.642H16.44V165.89      c12.806-2.108,38.204-10.862,52.398-46.804c0.054-0.138,0.106-0.279,0.154-0.417c5.969-17.901,26.821-64.817,51.315-66.931      c17.545-1.522,33.898,21.62,44.561,41.29c1.743,3.217,3.396,6.568,5.011,9.99C156.777,115.433,149.319,132.978,148.216,135.724z      "/>
			</g>
		</g>
	</g>
</g>
<g>
</g>
<g>
</g>
<g>
</g>
<g>
</g>
<g>
</g>
<g>
</g>
<g>
</g>
<g>
</g>
<g>
</g>
<g>
</g>
<g>
</g>
<g>
</g>
<g>
</g>
<g>
</g>
<g>
</g>
</svg>