<?xml version="1.0" encoding="iso-8859-1"?>
<!-- Generator: Adobe Illustrator 19.0.0, SVG Export Plug-In . SVG Version: 6.00 Build 0)  -->
<svg version="1.1" id="Layer_1" xmlns="http://www.w3.org/2000/svg" xmlns:xlink="http://www.w3.org/1999/xlink" x="0px" y="0px"
	 viewBox="0 0 294.767 294.767" style="enable-background:new 0 0 294.767 294.767;" xml:space="preserve">
<g>
	<g>
		<g>
			<g id="XMLID_5_">
				<g>
					<path style="fill:#505967;" d="M125.052,177.758h110.473c-4.742,56.07-52.097,100.381-109.256,100.381
						c-60.459,0-109.672-49.213-109.672-109.672c0-57.063,44.215-104.418,100.157-109.288v110.249
						C116.753,174.04,120.47,177.758,125.052,177.758z"/>
					<path style="fill:#F47C6D;" d="M277.946,136.202H159.751V16.886C223.286,21.147,274.197,72.411,277.946,136.202z"/>
					<path style="fill:#2D213F;" d="M294.767,143.635v0.769c-0.16,4.454-3.845,8.394-8.33,8.394H151.452
						c-4.582,0-8.298-3.717-8.298-8.298V8.299c0-2.211,0.865-4.325,2.435-5.895c1.57-1.538,3.653-2.403,5.863-2.403c0,0,0,0,0.032,0
						C230.495,0.161,294.767,64.593,294.767,143.635z M159.751,136.202h118.195c-3.749-63.791-54.66-115.055-118.195-119.316
						V136.202z"/>
					<path style="fill:#2D213F;" d="M250.103,163.596c1.57,1.57,2.435,3.717,2.403,5.927
						c-0.545,69.046-57.191,125.244-126.237,125.244C56.646,294.768,0,238.089,0,168.467C0,99.517,56.07,42.87,124.987,42.165
						c2.307,0.064,4.325,0.865,5.927,2.403c1.57,1.57,2.435,3.685,2.435,5.895v110.666h110.858
						C246.418,161.129,248.565,162.027,250.103,163.596z M235.525,177.758H125.052c-4.582,0-8.298-3.717-8.298-8.33V59.179
						c-55.942,4.87-100.157,52.225-100.157,109.288c0,60.459,49.213,109.672,109.672,109.672
						C183.428,278.138,230.783,233.827,235.525,177.758z"/>
				</g>
			</g>
		</g>
	</g>
</g>
<g>
</g>
<g>
</g>
<g>
</g>
<g>
</g>
<g>
</g>
<g>
</g>
<g>
</g>
<g>
</g>
<g>
</g>
<g>
</g>
<g>
</g>
<g>
</g>
<g>
</g>
<g>
</g>
<g>
</g>
</svg>
