<?xml version="1.0" encoding="iso-8859-1"?>
<!-- Generator: Adobe Illustrator 19.0.0, SVG Export Plug-In . SVG Version: 6.00 Build 0)  -->
<svg version="1.1" id="Layer_1" xmlns="http://www.w3.org/2000/svg" xmlns:xlink="http://www.w3.org/1999/xlink" x="0px" y="0px"
	 viewBox="0 0 262.727 262.727" style="enable-background:new 0 0 262.727 262.727;" xml:space="preserve">
<g>
	<g>
		<g>
			<g id="XMLID_28_">
				<g>
					<path style="fill:#EAEEEF;" d="M134.087,213.353H44.856v-5.351h89.167c-0.064,0.801-0.128,1.634-0.128,2.467
						C133.895,211.431,133.959,212.392,134.087,213.353z"/>
					<path style="fill:#EAEEEF;" d="M66.963,152.478H44.856v-5.351h22.043c-0.064,0.769-0.128,1.57-0.128,2.339
						C66.771,150.491,66.867,151.484,66.963,152.478z"/>
					<path style="fill:#EAEEEF;" d="M44.856,86.251h105.123c-0.352,1.666-0.545,3.364-0.545,5.126c0,0.064,0.032,0.16,0.032,0.224
						H44.856V86.251z"/>
					<path style="fill:#EAEEEF;" d="M44.856,25.376h65.137c-0.128,1.121-0.256,2.243-0.256,3.396c0,0.641,0.064,1.314,0.128,1.954
						H44.856V25.376z"/>
					<path style="fill:#2D213F;" d="M254.589,246.418c4.486,0,8.138,3.653,8.138,8.138c0,4.518-3.653,8.17-8.138,8.17H8.138
						c-4.486,0-8.138-3.653-8.138-8.17V8.138C0,3.621,3.653,0,8.138,0c4.518,0,8.17,3.621,8.17,8.138v238.28H254.589z"/>
					<path style="fill:#2D213F;" d="M174.809,66.002c14.033,0,25.376,11.342,25.376,25.376c0,14.001-11.342,25.376-25.376,25.376
						c-7.69,0-14.546-3.46-19.224-8.843H36.718c-4.518,0-8.138-3.653-8.138-8.17V78.113c0-4.518,3.621-8.138,8.138-8.138h124.507
						C165.165,67.476,169.811,66.002,174.809,66.002z M149.979,86.251H44.856v5.351h104.61c0-0.064-0.032-0.16-0.032-0.224
						C149.434,89.615,149.626,87.917,149.979,86.251z"/>
					<path style="fill:#2D213F;" d="M159.27,185.094c14.001,0,25.376,11.342,25.376,25.376c0,14.001-11.374,25.344-25.376,25.344
						c-6.344,0-12.111-2.307-16.565-6.152H36.718c-4.518,0-8.138-3.653-8.138-8.17v-21.627c0-4.486,3.621-8.138,8.138-8.138h105.475
						C146.71,187.625,152.702,185.094,159.27,185.094z M44.856,213.353h89.231c-0.128-0.961-0.192-1.922-0.192-2.884
						c0-0.833,0.064-1.666,0.128-2.467H44.856V213.353z"/>
					<path style="fill:#2D213F;" d="M135.112,3.396c14.033,0,25.376,11.342,25.376,25.376c0,14.001-11.342,25.344-25.376,25.344
						c-6.824,0-13.008-2.691-17.558-7.081H36.718c-4.518,0-8.138-3.653-8.138-8.138v-21.66c0-4.518,3.621-8.138,8.138-8.138h82.374
						C123.482,5.511,129.057,3.396,135.112,3.396z M109.993,25.376H44.856v5.351h65.009c-0.064-0.641-0.128-1.314-0.128-1.954
						C109.736,27.618,109.865,26.497,109.993,25.376z"/>
					<path style="fill:#2D213F;" d="M92.147,124.122c14.033,0,25.376,11.342,25.376,25.344c0,14.033-11.342,25.376-25.376,25.376
						c-6.28,0-12.015-2.275-16.436-6.056H36.718c-4.518,0-8.138-3.653-8.138-8.17V138.99c0-4.518,3.621-8.138,8.138-8.138h38.256
						C79.491,126.686,85.514,124.122,92.147,124.122z M44.856,152.478h22.107c-0.096-0.993-0.192-1.986-0.192-3.012
						c0-0.769,0.064-1.57,0.128-2.339H44.856V152.478z"/>
				</g>
			</g>
		</g>
	</g>
</g>
<g>
</g>
<g>
</g>
<g>
</g>
<g>
</g>
<g>
</g>
<g>
</g>
<g>
</g>
<g>
</g>
<g>
</g>
<g>
</g>
<g>
</g>
<g>
</g>
<g>
</g>
<g>
</g>
<g>
</g>
</svg>
