<?xml version="1.0" encoding="iso-8859-1"?>
<!-- Generator: Adobe Illustrator 19.0.0, SVG Export Plug-In . SVG Version: 6.00 Build 0)  -->
<svg version="1.1" id="Layer_1" xmlns="http://www.w3.org/2000/svg" xmlns:xlink="http://www.w3.org/1999/xlink" x="0px" y="0px"
	 viewBox="0 0 314.003 314.003" style="enable-background:new 0 0 314.003 314.003;" xml:space="preserve">
<g>
	<g>
		<g>
			<g id="XMLID_21_">
				<g>
					<path style="fill:#FEDE94;" d="M263.502,220.703h18.711c-23.902,47.067-71.801,76.864-125.212,76.864
						c-53.378,0-101.31-29.797-125.212-76.864H50.5c22.46,37.391,62.83,60.427,106.5,60.427S241.042,258.094,263.502,220.703z"/>
					<path style="fill:#AAE1E9;" d="M297.592,156.784c0,7.786-0.641,15.635-1.954,23.389h-16.661
						c1.474-7.722,2.211-15.571,2.211-23.389c0-61.484-44.215-113.005-104.001-122.745V17.474
						C245.399,27.375,297.592,86.905,297.592,156.784z"/>
					<path style="fill:#F47C6D;" d="M137.777,17.314v16.565C77.414,43.235,32.815,94.787,32.815,156.784
						c0,7.818,0.737,15.667,2.211,23.389H18.365c-1.282-7.754-1.954-15.603-1.954-23.389C16.41,86.424,69.052,26.83,137.777,17.314z
						"/>
					<path style="fill:#2D213F;" d="M313.996,156.784c0,11.118-1.217,22.332-3.588,33.321c-0.801,3.781-4.165,6.472-8.01,6.472
						h-7.433h-26.369c-2.563,0-4.998-1.185-6.536-3.268c-1.538-2.051-2.051-4.71-1.346-7.177c2.723-9.58,4.069-19.48,4.069-29.348
						c0-55.557-41.556-101.727-96.664-107.398c-4.165-0.417-7.337-3.941-7.337-8.17v-0.064V8.279c0-2.275,0.961-4.486,2.627-6.023
						c1.698-1.57,3.941-2.339,6.216-2.147C250.59,6.581,313.996,75.403,313.996,156.784z M295.638,180.173
						c1.314-7.754,1.954-15.603,1.954-23.389c0-69.879-52.193-129.409-120.406-139.309v16.564
						c59.786,9.74,104.001,61.26,104.001,122.745c0,7.818-0.737,15.667-2.211,23.389
						C278.977,180.173,295.638,180.173,295.638,180.173z"/>
					<path style="fill:#2D213F;" d="M301.757,207.887c1.538,2.275,1.826,5.158,0.801,7.69
						c-24.158,59.786-81.285,98.426-145.557,98.426s-121.399-38.64-145.557-98.426c-1.025-2.531-0.737-5.415,0.801-7.69
						c1.506-2.243,4.069-3.62,6.792-3.62h26.369h9.836c3.012,0,5.767,1.634,7.209,4.261c19,34.667,55.237,56.198,94.55,56.198
						c39.345,0,75.55-21.531,94.55-56.198c1.442-2.627,4.197-4.261,7.209-4.261h36.205
						C297.688,204.267,300.251,205.645,301.757,207.887z M282.213,220.703h-18.711c-22.46,37.391-62.83,60.427-106.5,60.427
						s-84.041-23.037-106.5-60.427H31.789c23.902,47.067,71.833,76.864,125.212,76.864
						C210.412,297.567,258.311,267.77,282.213,220.703z"/>
					<path style="fill:#2D213F;" d="M154.182,8.215v32.937c0,4.229-3.236,7.754-7.433,8.17
						c-55.622,5.287-97.53,51.456-97.53,107.462c0,9.868,1.378,19.769,4.069,29.349c0.705,2.467,0.224,5.126-1.346,7.177
						c-1.538,2.083-3.973,3.268-6.536,3.268H11.604c-3.845,0-7.177-2.691-8.01-6.472c-2.371-10.99-3.588-22.204-3.588-33.321
						c0-81.894,63.855-150.747,145.365-156.771c2.275-0.128,4.518,0.641,6.184,2.179C153.22,3.761,154.182,5.94,154.182,8.215z
						 M137.777,33.879V17.314C69.052,26.83,16.41,86.424,16.41,156.784c0,7.786,0.673,15.635,1.954,23.389h16.661
						c-1.474-7.722-2.211-15.571-2.211-23.389C32.815,94.787,77.414,43.235,137.777,33.879z"/>
				</g>
			</g>
		</g>
	</g>
</g>
<g>
</g>
<g>
</g>
<g>
</g>
<g>
</g>
<g>
</g>
<g>
</g>
<g>
</g>
<g>
</g>
<g>
</g>
<g>
</g>
<g>
</g>
<g>
</g>
<g>
</g>
<g>
</g>
<g>
</g>
</svg>
