<?xml version="1.0" encoding="iso-8859-1"?>
<!-- Generator: Adobe Illustrator 19.0.0, SVG Export Plug-In . SVG Version: 6.00 Build 0)  -->
<svg version="1.1" id="Layer_1" xmlns="http://www.w3.org/2000/svg" xmlns:xlink="http://www.w3.org/1999/xlink" x="0px" y="0px"
	 viewBox="0 0 262.727 262.727" style="enable-background:new 0 0 262.727 262.727;" xml:space="preserve">
<g>
	<g>
		<g>
			<g id="XMLID_23_">
				<g>
					<rect x="185.799" y="198.423" style="fill:#FEDE94;" width="60.299" height="31.719"/>
					<rect x="83.624" y="116.016" style="fill:#AAE1E9;" width="162.474" height="31.687"/>
					<rect x="130.626" y="32.585" style="fill:#F47C6D;" width="115.472" height="31.687"/>
					<path style="fill:#2D213F;" d="M262.727,190.157v48.252c0,4.582-3.717,8.298-8.298,8.298H8.298
						c-4.582,0-8.298-3.717-8.298-8.298v-48.252c0-4.582,3.717-8.298,8.298-8.298h246.13
						C259.01,181.858,262.727,185.575,262.727,190.157z M246.098,230.142v-31.719h-60.299v31.719H246.098z"/>
					<path style="fill:#2D213F;" d="M262.727,107.75v48.252c0,4.582-3.717,8.266-8.298,8.266H8.298
						c-4.582,0-8.298-3.685-8.298-8.266V107.75c0-4.582,3.717-8.298,8.298-8.298h246.13
						C259.01,99.452,262.727,103.168,262.727,107.75z M246.098,147.704v-31.687H83.624v31.687H246.098z"/>
					<path style="fill:#2D213F;" d="M262.727,24.286v48.252c0,4.582-3.717,8.298-8.298,8.298H8.298C3.717,80.837,0,77.12,0,72.538
						V24.286c0-4.582,3.717-8.266,8.298-8.266h246.13C259.01,16.02,262.727,19.705,262.727,24.286z M246.098,64.272V32.585H130.626
						v31.687H246.098z"/>
				</g>
			</g>
		</g>
	</g>
</g>
<g>
</g>
<g>
</g>
<g>
</g>
<g>
</g>
<g>
</g>
<g>
</g>
<g>
</g>
<g>
</g>
<g>
</g>
<g>
</g>
<g>
</g>
<g>
</g>
<g>
</g>
<g>
</g>
<g>
</g>
</svg>
