<?xml version="1.0" encoding="windows-1252"?>
<!-- Generator: Adobe Illustrator 19.0.0, SVG Export Plug-In . SVG Version: 6.00 Build 0)  -->
<svg version="1.1" id="Layer_1" xmlns="http://www.w3.org/2000/svg" xmlns:xlink="http://www.w3.org/1999/xlink" x="0px" y="0px" viewBox="0 0 281.951 281.951" style="enable-background:new 0 0 281.951 281.951;" xml:space="preserve">
<g>
	<g>
		<g id="XMLID_26_">
			<g>
				<path style="fill:#FEDE94;" d="M131.684,108.775l2.691,2.787c-0.513,0.417-0.929,0.929-1.314,1.474l-36.493,51.969      l-8.811-19.192c-1.153-2.563-3.588-4.357-6.408-4.71c-2.787-0.352-5.607,0.769-7.401,2.948l-23.389,28.548l-10.157-13.681      l25.344-65.137l29.701,37.326c1.442,1.826,3.556,2.948,5.863,3.108c2.307,0.128,4.582-0.673,6.248-2.275L131.684,108.775z"/>
				<path style="fill:#2D213F;" d="M275.543,124.411v149.37c0,4.518-3.685,8.17-8.202,8.17H14.61c-4.518,0-8.202-3.653-8.202-8.17      V137.932V8.138C6.408,3.653,10.093,0,14.61,0s8.202,3.653,8.202,8.138V135.24l6.056,8.138l26.785-68.822      c1.057-2.723,3.492-4.678,6.408-5.094c2.948-0.449,5.831,0.705,7.658,3.012l32.969,41.46l42.837-41.171      c1.666-1.602,3.973-2.435,6.28-2.243c2.307,0.16,4.454,1.282,5.863,3.076l29.573,37.487l46.233-44.503      c2.307-2.243,5.703-2.916,8.715-1.73c2.98,1.185,4.998,3.973,5.158,7.177l3.428,66.098l9.324-17.526      c1.762-3.332,5.543-5.03,9.227-4.101C272.979,117.394,275.543,120.662,275.543,124.411z M259.138,265.61V157.252l-6.728,12.656      l0.064,0.897l-0.545,0.032l-6.792,12.752c-1.25,2.371-3.588,3.973-6.28,4.293c-2.691,0.288-5.351-0.705-7.113-2.723      l-19.897-22.556l-28.195,24.062c-1.826,1.538-4.229,2.243-6.6,1.858s-4.486-1.762-5.735-3.813l-32.008-52.097l-37.519,53.442      c-1.698,2.403-4.55,3.717-7.465,3.46c-2.948-0.288-5.511-2.083-6.728-4.742l-9.26-20.249l-21.755,26.529      c-1.57,1.954-3.813,3.076-6.536,3.012c-2.531-0.064-4.902-1.282-6.408-3.332l-20.826-28.035V265.61H259.138z M235.749,164.941      l-3.845-74.172l-39.794,38.32c-1.666,1.602-3.909,2.435-6.28,2.275c-2.307-0.16-4.454-1.282-5.863-3.076l-29.573-37.487      l-18.711,17.974l-24.126,23.165c-1.666,1.602-3.941,2.403-6.248,2.275c-2.307-0.16-4.421-1.282-5.863-3.108l-29.7-37.326      l-25.344,65.137l10.157,13.681l23.389-28.548c1.794-2.179,4.614-3.3,7.401-2.948c2.82,0.352,5.255,2.147,6.408,4.71      l8.811,19.192l36.493-51.969c0.384-0.545,0.801-1.057,1.314-1.474c1.538-1.346,3.556-2.083,5.639-2.019      c2.787,0.096,5.319,1.57,6.76,3.909l33.514,54.564l27.042-23.037c3.396-2.916,8.523-2.531,11.502,0.801L235.749,164.941z"/>
				<path style="fill:#F47C6D;" d="M259.138,157.252V265.61H22.812V162.698l20.826,28.035c1.506,2.051,3.877,3.268,6.408,3.332      c2.723,0.064,4.966-1.057,6.536-3.012l21.755-26.529l9.26,20.249c1.218,2.659,3.781,4.454,6.728,4.742      c2.916,0.256,5.767-1.057,7.465-3.46l37.519-53.442l32.008,52.097c1.25,2.051,3.364,3.428,5.735,3.813s4.774-0.32,6.6-1.858      l28.195-24.062l19.897,22.556c1.762,2.019,4.421,3.012,7.113,2.723c2.691-0.32,5.03-1.922,6.28-4.293l6.792-12.752l0.545-0.032      l-0.064-0.897L259.138,157.252z"/>
				<path style="fill:#FEDE94;" d="M231.904,90.769l3.845,74.172l-16.917-19.16c-2.98-3.332-8.106-3.717-11.502-0.801      l-27.042,23.037l-33.514-54.564c-1.442-2.339-3.973-3.813-6.76-3.909c-2.083-0.064-4.101,0.673-5.639,2.019l-2.691-2.787      l18.711-17.974l29.573,37.487c1.41,1.794,3.556,2.916,5.863,3.076c2.371,0.16,4.614-0.673,6.28-2.275L231.904,90.769z"/>
			</g>
		</g>
	</g>
</g>
<g>
</g>
<g>
</g>
<g>
</g>
<g>
</g>
<g>
</g>
<g>
</g>
<g>
</g>
<g>
</g>
<g>
</g>
<g>
</g>
<g>
</g>
<g>
</g>
<g>
</g>
<g>
</g>
<g>
</g>
</svg>