<?xml version="1.0" encoding="windows-1252"?>
<!-- Generator: Adobe Illustrator 19.0.0, SVG Export Plug-In . SVG Version: 6.00 Build 0)  -->
<svg version="1.1" id="Layer_1" xmlns="http://www.w3.org/2000/svg" xmlns:xlink="http://www.w3.org/1999/xlink" x="0px" y="0px" viewBox="0 0 288.358 288.358" style="enable-background:new 0 0 288.358 288.358;" xml:space="preserve">
<g>
	<g>
		<g id="XMLID_5_">
			<g>
				<path style="fill:#FEDE94;" d="M244.335,66.322v205.44h-31.111V97.209C223.733,88.238,234.146,77.985,244.335,66.322z"/>
				<path style="fill:#AAE1E9;" d="M165.453,130.05v141.712h-31.111V144.179C144.467,140.367,154.912,135.721,165.453,130.05z"/>
				<path style="fill:#F47C6D;" d="M84.264,157.252v114.51H53.121V160.103C62.317,159.847,72.794,159.014,84.264,157.252z"/>
				<path style="fill:#2D213F;" d="M281.95,0l-0.256,41.267l-12.111-7.529c-3.268,4.742-6.568,9.26-9.9,13.681      c0.673,1.185,1.121,2.531,1.121,3.973v220.434h2.563c4.518,0,8.202,3.685,8.202,8.266c0,4.55-3.685,8.266-8.202,8.266H14.641      c-4.55,0-8.234-3.717-8.234-8.266V29.989c0-4.582,3.685-8.266,8.234-8.266c4.518,0,8.202,3.685,8.202,8.266v112.364      c26.657,3.909,143.507,12.56,232.737-117.33l-10.221-6.312L281.95,0z M244.335,271.762V66.322      c-10.189,11.663-20.602,21.915-31.111,30.886v174.553h31.111V271.762z M196.788,271.826V110.281      c-4.966,3.621-9.932,7.017-14.899,10.157v151.388H196.788z M165.453,271.762V130.05c-10.541,5.671-20.986,10.317-31.111,14.13      v127.583h31.111V271.762z M117.906,271.826V149.69c-5.895,1.762-11.63,3.236-17.205,4.454v117.682H117.906z M84.264,271.762      v-114.51c-11.47,1.762-21.947,2.595-31.143,2.852v111.659h31.143V271.762z M36.685,271.826V159.975      c-5.543-0.256-10.189-0.673-13.841-1.089v112.94H36.685z"/>
			</g>
		</g>
	</g>
</g>
<g>
</g>
<g>
</g>
<g>
</g>
<g>
</g>
<g>
</g>
<g>
</g>
<g>
</g>
<g>
</g>
<g>
</g>
<g>
</g>
<g>
</g>
<g>
</g>
<g>
</g>
<g>
</g>
<g>
</g>
</svg>