<?xml version="1.0" encoding="iso-8859-1"?>
<!-- Generator: Adobe Illustrator 19.0.0, SVG Export Plug-In . SVG Version: 6.00 Build 0)  -->
<svg version="1.1" id="Layer_1" xmlns="http://www.w3.org/2000/svg" xmlns:xlink="http://www.w3.org/1999/xlink" x="0px" y="0px"
	 viewBox="0 0 281.95 281.95" style="enable-background:new 0 0 281.95 281.95;" xml:space="preserve">
<g>
	<g>
		<g id="XMLID_22_">
			<g>
				<path style="fill:#2D213F;" d="M265.93,196.148v48.028c0,4.582-3.717,8.266-8.266,8.266H32.551v21.242
					c0,4.55-3.685,8.266-8.266,8.266c-4.55,0-8.266-3.717-8.266-8.266V8.234C16.019,3.685,19.736,0,24.285,0
					c4.582,0,8.266,3.685,8.266,8.234v25.568h85.931c4.55,0,8.266,3.685,8.266,8.234v48.06c0,4.55-3.717,8.266-8.266,8.266H32.551
					v11.695h129.89c4.55,0,8.266,3.685,8.266,8.234v48.06c0,4.55-3.717,8.234-8.266,8.234H32.551v13.297h225.112
					C262.213,187.882,265.93,191.598,265.93,196.148z M249.397,235.941v-31.559H32.551v31.559H249.397z M154.143,158.117v-31.559
					H32.551v31.559H154.143z M110.216,81.862V50.303H32.551v31.559H110.216z"/>
				<rect x="32.551" y="204.382" style="fill:#FEDE94;" width="216.846" height="31.559"/>
				<rect x="32.551" y="126.557" style="fill:#AAE1E9;" width="121.591" height="31.559"/>
				<rect x="32.551" y="50.303" style="fill:#F47C6D;" width="77.665" height="31.559"/>
			</g>
		</g>
	</g>
</g>
<g>
</g>
<g>
</g>
<g>
</g>
<g>
</g>
<g>
</g>
<g>
</g>
<g>
</g>
<g>
</g>
<g>
</g>
<g>
</g>
<g>
</g>
<g>
</g>
<g>
</g>
<g>
</g>
<g>
</g>
</svg>
